<?xml version="1.0" encoding="UTF-8"?> <svg xmlns="http://www.w3.org/2000/svg" width="272" height="184" viewBox="0 0 272 184" fill="none"><path d="M9.72754 58H3.17871V57.0498L5.85156 54.3359C6.34831 53.8346 6.7653 53.388 7.10254 52.9961C7.44434 52.6042 7.7041 52.2191 7.88184 51.8408C8.05957 51.458 8.14844 51.0387 8.14844 50.583C8.14844 50.0179 7.97982 49.5872 7.64258 49.291C7.3099 48.9902 6.87012 48.8398 6.32324 48.8398C5.84473 48.8398 5.4209 48.9219 5.05176 49.0859C4.68262 49.25 4.30436 49.4824 3.91699 49.7832L3.30859 49.0176C3.57292 48.7943 3.86003 48.596 4.16992 48.4229C4.48438 48.2497 4.81934 48.113 5.1748 48.0127C5.53483 47.9124 5.91764 47.8623 6.32324 47.8623C6.93848 47.8623 7.4694 47.9694 7.91602 48.1836C8.36263 48.3978 8.70671 48.7031 8.94824 49.0996C9.19434 49.4961 9.31738 49.9678 9.31738 50.5146C9.31738 51.0433 9.21257 51.5355 9.00293 51.9912C8.79329 52.4424 8.49935 52.8913 8.12109 53.3379C7.74284 53.7799 7.30078 54.2493 6.79492 54.7461L4.62109 56.9131V56.9609H9.72754V58ZM14.4922 47.8623C15.071 47.8623 15.5837 47.9535 16.0303 48.1357C16.4769 48.318 16.8255 48.5869 17.0762 48.9424C17.3314 49.2933 17.459 49.7262 17.459 50.2412C17.459 50.6468 17.3701 51.0023 17.1924 51.3076C17.0192 51.6084 16.7845 51.8727 16.4883 52.1006C16.1921 52.3239 15.8639 52.5244 15.5039 52.7021C15.9323 52.8981 16.3174 53.1191 16.6592 53.3652C17.0055 53.6113 17.279 53.9007 17.4795 54.2334C17.68 54.5661 17.7803 54.9603 17.7803 55.416C17.7803 55.9766 17.6436 56.4619 17.3701 56.8721C17.1012 57.2777 16.723 57.5898 16.2354 57.8086C15.7477 58.0273 15.1758 58.1367 14.5195 58.1367C13.8132 58.1367 13.2116 58.0319 12.7148 57.8223C12.2227 57.6081 11.8467 57.3027 11.5869 56.9062C11.3317 56.5052 11.2041 56.0244 11.2041 55.4639C11.2041 55.0036 11.3021 54.6048 11.498 54.2676C11.694 53.9258 11.9538 53.6318 12.2773 53.3857C12.6009 53.1396 12.9541 52.9323 13.3369 52.7637C13.0042 52.5814 12.6989 52.374 12.4209 52.1416C12.1475 51.9092 11.9287 51.638 11.7646 51.3281C11.6051 51.0137 11.5254 50.6491 11.5254 50.2344C11.5254 49.7285 11.653 49.3001 11.9082 48.9492C12.168 48.5938 12.5212 48.3249 12.9678 48.1426C13.4189 47.9557 13.9271 47.8623 14.4922 47.8623ZM12.3184 55.4707C12.3184 55.9811 12.4984 56.4027 12.8584 56.7354C13.2184 57.0635 13.763 57.2275 14.4922 57.2275C15.1849 57.2275 15.7204 57.0635 16.0986 56.7354C16.4769 56.4027 16.666 55.9674 16.666 55.4297C16.666 55.097 16.5794 54.8053 16.4062 54.5547C16.2331 54.2995 15.987 54.0716 15.668 53.8711C15.349 53.6706 14.973 53.4883 14.54 53.3242L14.2939 53.2354C13.8747 53.4085 13.5169 53.6022 13.2207 53.8164C12.929 54.026 12.7057 54.2653 12.5508 54.5342C12.3958 54.8031 12.3184 55.1152 12.3184 55.4707ZM14.4785 48.792C13.9408 48.792 13.501 48.9219 13.1592 49.1816C12.8174 49.4368 12.6465 49.806 12.6465 50.2891C12.6465 50.6354 12.7285 50.9294 12.8926 51.1709C13.0612 51.4079 13.2891 51.613 13.5762 51.7861C13.8633 51.9548 14.1846 52.112 14.54 52.2578C14.8864 52.112 15.194 51.9525 15.4629 51.7793C15.7318 51.6016 15.9437 51.3919 16.0986 51.1504C16.2536 50.9089 16.3311 50.6195 16.3311 50.2822C16.3311 49.7992 16.1602 49.43 15.8184 49.1748C15.4811 48.9196 15.0345 48.792 14.4785 48.792Z" fill="#777777"></path><path d="M1.60645 12V2.00586H9.05078V12H7.90234V3.03125H2.76855V12H1.60645ZM19.3799 12H18.2178V7.29004H12.9678V12H11.8057V2.00586H12.9678V6.26465H18.2178V2.00586H19.3799V12Z" fill="#777777"></path><path d="M14.2324 86.6826H12.7354V89H11.6279V86.6826H6.79492V85.7256L11.5527 78.9512H12.7354V85.6572H14.2324V86.6826ZM11.6279 85.6572V82.3896C11.6279 82.139 11.6302 81.9134 11.6348 81.7129C11.6393 81.5078 11.6462 81.3187 11.6553 81.1455C11.6644 80.9678 11.6712 80.7992 11.6758 80.6396C11.6849 80.4801 11.6917 80.3229 11.6963 80.168H11.6416C11.555 80.3503 11.4548 80.5439 11.3408 80.749C11.2314 80.9495 11.1198 81.1296 11.0059 81.2891L7.92285 85.6572H11.6279Z" fill="#777777"></path><path d="M7.40332 120H6.2959V112.918C6.2959 112.649 6.2959 112.419 6.2959 112.228C6.30046 112.032 6.30501 111.854 6.30957 111.694C6.31868 111.53 6.33008 111.364 6.34375 111.195C6.20247 111.341 6.07031 111.466 5.94727 111.571C5.82422 111.672 5.67155 111.797 5.48926 111.947L4.34766 112.863L3.75293 112.091L6.45996 110.006H7.40332V120ZM15.415 120H14.3076V112.918C14.3076 112.649 14.3076 112.419 14.3076 112.228C14.3122 112.032 14.3167 111.854 14.3213 111.694C14.3304 111.53 14.3418 111.364 14.3555 111.195C14.2142 111.341 14.082 111.466 13.959 111.571C13.8359 111.672 13.6833 111.797 13.501 111.947L12.3594 112.863L11.7646 112.091L14.4717 110.006H15.415V120Z" fill="#777777"></path><path d="M7.40332 151H6.2959V143.918C6.2959 143.649 6.2959 143.419 6.2959 143.228C6.30046 143.032 6.30501 142.854 6.30957 142.694C6.31868 142.53 6.33008 142.364 6.34375 142.195C6.20247 142.341 6.07031 142.466 5.94727 142.571C5.82422 142.672 5.67155 142.797 5.48926 142.947L4.34766 143.863L3.75293 143.091L6.45996 141.006H7.40332V151ZM14.4922 140.862C15.071 140.862 15.5837 140.953 16.0303 141.136C16.4769 141.318 16.8255 141.587 17.0762 141.942C17.3314 142.293 17.459 142.726 17.459 143.241C17.459 143.647 17.3701 144.002 17.1924 144.308C17.0192 144.608 16.7845 144.873 16.4883 145.101C16.1921 145.324 15.8639 145.524 15.5039 145.702C15.9323 145.898 16.3174 146.119 16.6592 146.365C17.0055 146.611 17.279 146.901 17.4795 147.233C17.68 147.566 17.7803 147.96 17.7803 148.416C17.7803 148.977 17.6436 149.462 17.3701 149.872C17.1012 150.278 16.723 150.59 16.2354 150.809C15.7477 151.027 15.1758 151.137 14.5195 151.137C13.8132 151.137 13.2116 151.032 12.7148 150.822C12.2227 150.608 11.8467 150.303 11.5869 149.906C11.3317 149.505 11.2041 149.024 11.2041 148.464C11.2041 148.004 11.3021 147.605 11.498 147.268C11.694 146.926 11.9538 146.632 12.2773 146.386C12.6009 146.14 12.9541 145.932 13.3369 145.764C13.0042 145.581 12.6989 145.374 12.4209 145.142C12.1475 144.909 11.9287 144.638 11.7646 144.328C11.6051 144.014 11.5254 143.649 11.5254 143.234C11.5254 142.729 11.653 142.3 11.9082 141.949C12.168 141.594 12.5212 141.325 12.9678 141.143C13.4189 140.956 13.9271 140.862 14.4922 140.862ZM12.3184 148.471C12.3184 148.981 12.4984 149.403 12.8584 149.735C13.2184 150.063 13.763 150.228 14.4922 150.228C15.1849 150.228 15.7204 150.063 16.0986 149.735C16.4769 149.403 16.666 148.967 16.666 148.43C16.666 148.097 16.5794 147.805 16.4062 147.555C16.2331 147.299 15.987 147.072 15.668 146.871C15.349 146.671 14.973 146.488 14.54 146.324L14.2939 146.235C13.8747 146.409 13.5169 146.602 13.2207 146.816C12.929 147.026 12.7057 147.265 12.5508 147.534C12.3958 147.803 12.3184 148.115 12.3184 148.471ZM14.4785 141.792C13.9408 141.792 13.501 141.922 13.1592 142.182C12.8174 142.437 12.6465 142.806 12.6465 143.289C12.6465 143.635 12.7285 143.929 12.8926 144.171C13.0612 144.408 13.2891 144.613 13.5762 144.786C13.8633 144.955 14.1846 145.112 14.54 145.258C14.8864 145.112 15.194 144.952 15.4629 144.779C15.7318 144.602 15.9437 144.392 16.0986 144.15C16.2536 143.909 16.3311 143.619 16.3311 143.282C16.3311 142.799 16.1602 142.43 15.8184 142.175C15.4811 141.92 15.0345 141.792 14.4785 141.792Z" fill="#777777"></path><path d="M9.72754 182H3.17871V181.05L5.85156 178.336C6.34831 177.835 6.7653 177.388 7.10254 176.996C7.44434 176.604 7.7041 176.219 7.88184 175.841C8.05957 175.458 8.14844 175.039 8.14844 174.583C8.14844 174.018 7.97982 173.587 7.64258 173.291C7.3099 172.99 6.87012 172.84 6.32324 172.84C5.84473 172.84 5.4209 172.922 5.05176 173.086C4.68262 173.25 4.30436 173.482 3.91699 173.783L3.30859 173.018C3.57292 172.794 3.86003 172.596 4.16992 172.423C4.48438 172.25 4.81934 172.113 5.1748 172.013C5.53483 171.912 5.91764 171.862 6.32324 171.862C6.93848 171.862 7.4694 171.969 7.91602 172.184C8.36263 172.398 8.70671 172.703 8.94824 173.1C9.19434 173.496 9.31738 173.968 9.31738 174.515C9.31738 175.043 9.21257 175.535 9.00293 175.991C8.79329 176.442 8.49935 176.891 8.12109 177.338C7.74284 177.78 7.30078 178.249 6.79492 178.746L4.62109 180.913V180.961H9.72754V182ZM14.3486 175.889C15.0277 175.889 15.6178 176.005 16.1191 176.237C16.6204 176.465 17.0078 176.798 17.2812 177.235C17.5592 177.673 17.6982 178.204 17.6982 178.828C17.6982 179.512 17.5501 180.102 17.2539 180.599C16.9577 181.091 16.5316 181.471 15.9756 181.74C15.4196 182.005 14.7542 182.137 13.9795 182.137C13.46 182.137 12.9769 182.091 12.5303 182C12.0837 181.909 11.7077 181.772 11.4023 181.59V180.51C11.735 180.71 12.1383 180.87 12.6123 180.988C13.0863 181.107 13.5465 181.166 13.9932 181.166C14.499 181.166 14.9411 181.086 15.3193 180.927C15.7021 180.763 15.9984 180.517 16.208 180.188C16.4222 179.856 16.5293 179.439 16.5293 178.938C16.5293 178.272 16.3242 177.759 15.9141 177.399C15.5085 177.035 14.8659 176.853 13.9863 176.853C13.7038 176.853 13.3939 176.875 13.0566 176.921C12.7194 176.966 12.4414 177.017 12.2227 177.071L11.6484 176.695L12.0312 172.006H17.001V173.045H13.002L12.749 176.06C12.9222 176.023 13.1455 175.987 13.4189 175.95C13.6924 175.909 14.0023 175.889 14.3486 175.889Z" fill="#777777"></path><path d="M52.7275 58H46.1787V57.0498L48.8516 54.3359C49.3483 53.8346 49.7653 53.388 50.1025 52.9961C50.4443 52.6042 50.7041 52.2191 50.8818 51.8408C51.0596 51.458 51.1484 51.0387 51.1484 50.583C51.1484 50.0179 50.9798 49.5872 50.6426 49.291C50.3099 48.9902 49.8701 48.8398 49.3232 48.8398C48.8447 48.8398 48.4209 48.9219 48.0518 49.0859C47.6826 49.25 47.3044 49.4824 46.917 49.7832L46.3086 49.0176C46.5729 48.7943 46.86 48.596 47.1699 48.4229C47.4844 48.2497 47.8193 48.113 48.1748 48.0127C48.5348 47.9124 48.9176 47.8623 49.3232 47.8623C49.9385 47.8623 50.4694 47.9694 50.916 48.1836C51.3626 48.3978 51.7067 48.7031 51.9482 49.0996C52.1943 49.4961 52.3174 49.9678 52.3174 50.5146C52.3174 51.0433 52.2126 51.5355 52.0029 51.9912C51.7933 52.4424 51.4993 52.8913 51.1211 53.3379C50.7428 53.7799 50.3008 54.2493 49.7949 54.7461L47.6211 56.9131V56.9609H52.7275V58ZM60.7529 52.2646C60.7529 52.8708 60.7096 53.4609 60.623 54.0352C60.541 54.6094 60.3975 55.1449 60.1924 55.6416C59.9919 56.1383 59.7184 56.5736 59.3721 56.9473C59.0257 57.321 58.5905 57.6149 58.0664 57.8291C57.5469 58.0387 56.9248 58.1436 56.2002 58.1436C56.0042 58.1436 55.7809 58.1299 55.5303 58.1025C55.2796 58.0798 55.0745 58.0456 54.915 58V57.0156C55.0837 57.0749 55.2819 57.1227 55.5098 57.1592C55.7376 57.1911 55.9609 57.207 56.1797 57.207C57.0319 57.207 57.7018 57.0247 58.1895 56.6602C58.6771 56.291 59.028 55.792 59.2422 55.1631C59.4564 54.5296 59.5771 53.8187 59.6045 53.0303H59.5225C59.3857 53.249 59.2057 53.4518 58.9824 53.6387C58.7637 53.821 58.4971 53.9691 58.1826 54.083C57.8682 54.1924 57.5013 54.2471 57.082 54.2471C56.5033 54.2471 55.9974 54.1286 55.5645 53.8916C55.1361 53.6546 54.8011 53.3105 54.5596 52.8594C54.3226 52.4082 54.2041 51.8636 54.2041 51.2256C54.2041 50.5374 54.334 49.9427 54.5938 49.4414C54.8581 48.9355 55.2272 48.5459 55.7012 48.2725C56.1751 47.999 56.7334 47.8623 57.376 47.8623C57.8682 47.8623 58.3193 47.9557 58.7295 48.1426C59.1396 48.3294 59.4951 48.6097 59.7959 48.9834C60.1012 49.3525 60.3359 49.8105 60.5 50.3574C60.6686 50.9043 60.7529 51.54 60.7529 52.2646ZM57.376 48.8262C56.7699 48.8262 56.2777 49.0244 55.8994 49.4209C55.5257 49.8174 55.3389 50.4144 55.3389 51.2119C55.3389 51.8727 55.5007 52.3945 55.8242 52.7773C56.1478 53.1602 56.6468 53.3516 57.3213 53.3516C57.7861 53.3516 58.1872 53.2581 58.5244 53.0713C58.8662 52.8844 59.1283 52.6475 59.3105 52.3604C59.4974 52.0732 59.5908 51.7793 59.5908 51.4785C59.5908 51.1777 59.5452 50.8724 59.4541 50.5625C59.3675 50.2526 59.2331 49.9678 59.0508 49.708C58.8685 49.4437 58.6383 49.2318 58.3604 49.0723C58.0824 48.9082 57.7542 48.8262 57.376 48.8262Z" fill="#777777"></path><path d="M46.4863 2.00586H49.3164C50.5651 2.00586 51.5039 2.19271 52.1328 2.56641C52.7617 2.9401 53.0762 3.57585 53.0762 4.47363C53.0762 4.861 53.001 5.20964 52.8506 5.51953C52.7048 5.82487 52.4906 6.0778 52.208 6.27832C51.9255 6.47884 51.5768 6.61784 51.1621 6.69531V6.76367C51.5996 6.83203 51.987 6.95736 52.3242 7.13965C52.6615 7.32194 52.9258 7.57715 53.1172 7.90527C53.3086 8.2334 53.4043 8.65039 53.4043 9.15625C53.4043 9.77148 53.2607 10.291 52.9736 10.7148C52.6911 11.1387 52.29 11.46 51.7705 11.6787C51.251 11.8929 50.6357 12 49.9248 12H46.4863V2.00586ZM47.6484 6.29199H49.5625C50.4329 6.29199 51.0345 6.14844 51.3672 5.86133C51.7044 5.57422 51.873 5.15495 51.873 4.60352C51.873 4.03385 51.6725 3.6237 51.2715 3.37305C50.875 3.1224 50.2415 2.99707 49.3711 2.99707H47.6484V6.29199ZM47.6484 7.26953V11.0088H49.7266C50.6152 11.0088 51.2441 10.8356 51.6133 10.4893C51.9824 10.1383 52.167 9.66667 52.167 9.07422C52.167 8.69596 52.0827 8.3724 51.9141 8.10352C51.75 7.83464 51.4811 7.62956 51.1074 7.48828C50.7383 7.34245 50.2438 7.26953 49.624 7.26953H47.6484ZM58.6064 12H57.4375V3.03125H54.293V2.00586H61.7373V3.03125H58.6064V12Z" fill="#777777"></path><path d="M53.3428 82.8887C54.0218 82.8887 54.612 83.0049 55.1133 83.2373C55.6146 83.4652 56.002 83.7979 56.2754 84.2354C56.5534 84.6729 56.6924 85.2038 56.6924 85.8281C56.6924 86.5117 56.5443 87.1019 56.248 87.5986C55.9518 88.0908 55.5257 88.4714 54.9697 88.7402C54.4137 89.0046 53.7484 89.1367 52.9736 89.1367C52.4541 89.1367 51.971 89.0911 51.5244 89C51.0778 88.9089 50.7018 88.7721 50.3965 88.5898V87.5098C50.7292 87.7103 51.1325 87.8698 51.6064 87.9883C52.0804 88.1068 52.5407 88.166 52.9873 88.166C53.4932 88.166 53.9352 88.0863 54.3135 87.9268C54.6963 87.7627 54.9925 87.5166 55.2021 87.1885C55.4163 86.8558 55.5234 86.4388 55.5234 85.9375C55.5234 85.2721 55.3184 84.7594 54.9082 84.3994C54.5026 84.0348 53.86 83.8525 52.9805 83.8525C52.6979 83.8525 52.388 83.8753 52.0508 83.9209C51.7135 83.9665 51.4355 84.0166 51.2168 84.0713L50.6426 83.6953L51.0254 79.0059H55.9951V80.0449H51.9961L51.7432 83.0596C51.9163 83.0231 52.1396 82.9867 52.4131 82.9502C52.6865 82.9092 52.9964 82.8887 53.3428 82.8887Z" fill="#777777"></path><path d="M50.4033 120H49.2959V112.918C49.2959 112.649 49.2959 112.419 49.2959 112.228C49.3005 112.032 49.305 111.854 49.3096 111.694C49.3187 111.53 49.3301 111.364 49.3438 111.195C49.2025 111.341 49.0703 111.466 48.9473 111.571C48.8242 111.672 48.6715 111.797 48.4893 111.947L47.3477 112.863L46.7529 112.091L49.46 110.006H50.4033V120ZM60.7393 120H54.1904V119.05L56.8633 116.336C57.36 115.835 57.777 115.388 58.1143 114.996C58.4561 114.604 58.7158 114.219 58.8936 113.841C59.0713 113.458 59.1602 113.039 59.1602 112.583C59.1602 112.018 58.9915 111.587 58.6543 111.291C58.3216 110.99 57.8818 110.84 57.335 110.84C56.8564 110.84 56.4326 110.922 56.0635 111.086C55.6943 111.25 55.3161 111.482 54.9287 111.783L54.3203 111.018C54.5846 110.794 54.8717 110.596 55.1816 110.423C55.4961 110.25 55.8311 110.113 56.1865 110.013C56.5465 109.912 56.9294 109.862 57.335 109.862C57.9502 109.862 58.4811 109.969 58.9277 110.184C59.3743 110.398 59.7184 110.703 59.96 111.1C60.2061 111.496 60.3291 111.968 60.3291 112.515C60.3291 113.043 60.2243 113.535 60.0146 113.991C59.805 114.442 59.5111 114.891 59.1328 115.338C58.7546 115.78 58.3125 116.249 57.8066 116.746L55.6328 118.913V118.961H60.7393V120Z" fill="#777777"></path><path d="M50.4033 151H49.2959V143.918C49.2959 143.649 49.2959 143.419 49.2959 143.228C49.3005 143.032 49.305 142.854 49.3096 142.694C49.3187 142.53 49.3301 142.364 49.3438 142.195C49.2025 142.341 49.0703 142.466 48.9473 142.571C48.8242 142.672 48.6715 142.797 48.4893 142.947L47.3477 143.863L46.7529 143.091L49.46 141.006H50.4033V151ZM60.7529 145.265C60.7529 145.871 60.7096 146.461 60.623 147.035C60.541 147.609 60.3975 148.145 60.1924 148.642C59.9919 149.138 59.7184 149.574 59.3721 149.947C59.0257 150.321 58.5905 150.615 58.0664 150.829C57.5469 151.039 56.9248 151.144 56.2002 151.144C56.0042 151.144 55.7809 151.13 55.5303 151.103C55.2796 151.08 55.0745 151.046 54.915 151V150.016C55.0837 150.075 55.2819 150.123 55.5098 150.159C55.7376 150.191 55.9609 150.207 56.1797 150.207C57.0319 150.207 57.7018 150.025 58.1895 149.66C58.6771 149.291 59.028 148.792 59.2422 148.163C59.4564 147.53 59.5771 146.819 59.6045 146.03H59.5225C59.3857 146.249 59.2057 146.452 58.9824 146.639C58.7637 146.821 58.4971 146.969 58.1826 147.083C57.8682 147.192 57.5013 147.247 57.082 147.247C56.5033 147.247 55.9974 147.129 55.5645 146.892C55.1361 146.655 54.8011 146.311 54.5596 145.859C54.3226 145.408 54.2041 144.864 54.2041 144.226C54.2041 143.537 54.334 142.943 54.5938 142.441C54.8581 141.936 55.2272 141.546 55.7012 141.272C56.1751 140.999 56.7334 140.862 57.376 140.862C57.8682 140.862 58.3193 140.956 58.7295 141.143C59.1396 141.329 59.4951 141.61 59.7959 141.983C60.1012 142.353 60.3359 142.811 60.5 143.357C60.6686 143.904 60.7529 144.54 60.7529 145.265ZM57.376 141.826C56.7699 141.826 56.2777 142.024 55.8994 142.421C55.5257 142.817 55.3389 143.414 55.3389 144.212C55.3389 144.873 55.5007 145.395 55.8242 145.777C56.1478 146.16 56.6468 146.352 57.3213 146.352C57.7861 146.352 58.1872 146.258 58.5244 146.071C58.8662 145.884 59.1283 145.647 59.3105 145.36C59.4974 145.073 59.5908 144.779 59.5908 144.479C59.5908 144.178 59.5452 143.872 59.4541 143.562C59.3675 143.253 59.2331 142.968 59.0508 142.708C58.8685 142.444 58.6383 142.232 58.3604 142.072C58.0824 141.908 57.7542 141.826 57.376 141.826Z" fill="#777777"></path><path d="M52.7275 182H46.1787V181.05L48.8516 178.336C49.3483 177.835 49.7653 177.388 50.1025 176.996C50.4443 176.604 50.7041 176.219 50.8818 175.841C51.0596 175.458 51.1484 175.039 51.1484 174.583C51.1484 174.018 50.9798 173.587 50.6426 173.291C50.3099 172.99 49.8701 172.84 49.3232 172.84C48.8447 172.84 48.4209 172.922 48.0518 173.086C47.6826 173.25 47.3044 173.482 46.917 173.783L46.3086 173.018C46.5729 172.794 46.86 172.596 47.1699 172.423C47.4844 172.25 47.8193 172.113 48.1748 172.013C48.5348 171.912 48.9176 171.862 49.3232 171.862C49.9385 171.862 50.4694 171.969 50.916 172.184C51.3626 172.398 51.7067 172.703 51.9482 173.1C52.1943 173.496 52.3174 173.968 52.3174 174.515C52.3174 175.043 52.2126 175.535 52.0029 175.991C51.7933 176.442 51.4993 176.891 51.1211 177.338C50.7428 177.78 50.3008 178.249 49.7949 178.746L47.6211 180.913V180.961H52.7275V182ZM54.293 177.728C54.293 177.126 54.334 176.538 54.416 175.964C54.5026 175.39 54.6462 174.856 54.8467 174.364C55.0472 173.868 55.3206 173.432 55.667 173.059C56.0133 172.685 56.444 172.393 56.959 172.184C57.4785 171.969 58.1006 171.862 58.8252 171.862C59.0303 171.862 59.2513 171.874 59.4883 171.896C59.7253 171.915 59.9212 171.947 60.0762 171.992V172.97C59.9076 172.91 59.7139 172.867 59.4951 172.84C59.2809 172.812 59.0645 172.799 58.8457 172.799C57.998 172.799 57.3304 172.983 56.8428 173.353C56.3597 173.722 56.0111 174.223 55.7969 174.856C55.5827 175.485 55.4596 176.194 55.4277 176.982H55.5029C55.6442 176.755 55.8242 176.549 56.043 176.367C56.2617 176.18 56.526 176.032 56.8359 175.923C57.1504 175.813 57.515 175.759 57.9297 175.759C58.513 175.759 59.0212 175.877 59.4541 176.114C59.8916 176.351 60.2288 176.695 60.4658 177.146C60.7074 177.598 60.8281 178.145 60.8281 178.787C60.8281 179.475 60.7005 180.07 60.4453 180.571C60.1901 181.073 59.8255 181.46 59.3516 181.733C58.8822 182.002 58.3216 182.137 57.6699 182.137C57.1823 182.137 56.7334 182.043 56.3232 181.856C55.9131 181.67 55.5553 181.392 55.25 181.022C54.9492 180.653 54.7145 180.195 54.5459 179.648C54.3773 179.097 54.293 178.457 54.293 177.728ZM57.6562 181.18C58.276 181.18 58.7728 180.981 59.1465 180.585C59.5202 180.188 59.707 179.589 59.707 178.787C59.707 178.131 59.5407 177.611 59.208 177.229C58.8753 176.846 58.374 176.654 57.7041 176.654C57.2484 176.654 56.8519 176.75 56.5146 176.941C56.1774 177.128 55.9154 177.365 55.7285 177.652C55.5417 177.939 55.4482 178.231 55.4482 178.527C55.4482 178.828 55.4915 179.133 55.5781 179.443C55.6693 179.753 55.806 180.04 55.9883 180.305C56.1706 180.569 56.4007 180.781 56.6787 180.94C56.9567 181.1 57.2826 181.18 57.6562 181.18Z" fill="#777777"></path><path d="M94.3584 50.3369C94.3584 50.7835 94.2718 51.1709 94.0986 51.499C93.9255 51.8271 93.6839 52.096 93.374 52.3057C93.0641 52.5107 92.6995 52.6543 92.2803 52.7363V52.791C93.0732 52.8913 93.668 53.1465 94.0645 53.5566C94.4655 53.9668 94.666 54.5046 94.666 55.1699C94.666 55.7487 94.5293 56.2614 94.2559 56.708C93.987 57.1546 93.5723 57.5055 93.0117 57.7607C92.4557 58.0114 91.7425 58.1367 90.8721 58.1367C90.3434 58.1367 89.8535 58.0934 89.4023 58.0068C88.9557 57.9248 88.5273 57.7858 88.1172 57.5898V56.5234C88.5319 56.7285 88.9831 56.8903 89.4707 57.0088C89.9583 57.1227 90.43 57.1797 90.8857 57.1797C91.7972 57.1797 92.4557 56.9997 92.8613 56.6396C93.2669 56.2751 93.4697 55.7783 93.4697 55.1494C93.4697 54.7165 93.3558 54.3678 93.1279 54.1035C92.9046 53.8346 92.5811 53.6387 92.1572 53.5156C91.738 53.388 91.2321 53.3242 90.6396 53.3242H89.6416V52.3535H90.6465C91.1888 52.3535 91.6491 52.2738 92.0273 52.1143C92.4056 51.9548 92.6927 51.7314 92.8887 51.4443C93.0892 51.1527 93.1895 50.8086 93.1895 50.4121C93.1895 49.9062 93.0208 49.5166 92.6836 49.2432C92.3464 48.9652 91.8883 48.8262 91.3096 48.8262C90.9541 48.8262 90.6305 48.8626 90.3389 48.9355C90.0472 49.0085 89.7738 49.1087 89.5186 49.2363C89.2633 49.3639 89.0081 49.512 88.7529 49.6807L88.1787 48.9014C88.5433 48.6188 88.9876 48.375 89.5117 48.1699C90.0358 47.9648 90.6305 47.8623 91.2959 47.8623C92.3167 47.8623 93.0824 48.0947 93.5928 48.5596C94.1032 49.0244 94.3584 49.6169 94.3584 50.3369ZM102.794 52.9893C102.794 53.8005 102.732 54.5251 102.609 55.1631C102.486 55.8011 102.293 56.3411 102.028 56.7832C101.764 57.2253 101.422 57.5625 101.003 57.7949C100.584 58.0228 100.08 58.1367 99.4922 58.1367C98.7493 58.1367 98.1341 57.9339 97.6465 57.5283C97.1634 57.1227 96.8011 56.5371 96.5596 55.7715C96.3226 55.0013 96.2041 54.0739 96.2041 52.9893C96.2041 51.9229 96.3112 51.0068 96.5254 50.2412C96.7441 49.471 97.0951 48.8809 97.5781 48.4707C98.0612 48.056 98.6992 47.8486 99.4922 47.8486C100.244 47.8486 100.864 48.0537 101.352 48.4639C101.839 48.8695 102.201 49.4574 102.438 50.2275C102.675 50.9932 102.794 51.9137 102.794 52.9893ZM97.3457 52.9893C97.3457 53.9189 97.4163 54.6937 97.5576 55.3135C97.6989 55.9333 97.9268 56.3981 98.2412 56.708C98.5602 57.0133 98.9772 57.166 99.4922 57.166C100.007 57.166 100.422 57.0133 100.736 56.708C101.055 56.4027 101.285 55.9401 101.427 55.3203C101.573 54.7005 101.646 53.9235 101.646 52.9893C101.646 52.0732 101.575 51.3076 101.434 50.6924C101.292 50.0726 101.064 49.6077 100.75 49.2979C100.436 48.9834 100.016 48.8262 99.4922 48.8262C98.9681 48.8262 98.5488 48.9834 98.2344 49.2979C97.9199 49.6077 97.6921 50.0726 97.5508 50.6924C97.4141 51.3076 97.3457 52.0732 97.3457 52.9893Z" fill="#777777"></path><path d="M92.0195 2.8877C91.4681 2.8877 90.9714 2.9834 90.5293 3.1748C90.0918 3.36165 89.7181 3.63509 89.4082 3.99512C89.1029 4.35059 88.8682 4.78125 88.7041 5.28711C88.54 5.79297 88.458 6.36263 88.458 6.99609C88.458 7.83464 88.5879 8.5638 88.8477 9.18359C89.112 9.79883 89.5039 10.2751 90.0234 10.6123C90.5475 10.9495 91.2015 11.1182 91.9854 11.1182C92.432 11.1182 92.8512 11.0817 93.2432 11.0088C93.6396 10.9313 94.0247 10.8356 94.3984 10.7217V11.7334C94.0339 11.8701 93.651 11.9704 93.25 12.0342C92.849 12.1025 92.3727 12.1367 91.8213 12.1367C90.805 12.1367 89.9551 11.9271 89.2715 11.5078C88.5924 11.084 88.082 10.487 87.7402 9.7168C87.403 8.94661 87.2344 8.03743 87.2344 6.98926C87.2344 6.23275 87.3392 5.54232 87.5488 4.91797C87.763 4.28906 88.0729 3.74674 88.4785 3.29102C88.8887 2.83529 89.39 2.48438 89.9824 2.23828C90.5794 1.98763 91.263 1.8623 92.0332 1.8623C92.5391 1.8623 93.0267 1.91243 93.4961 2.0127C93.9655 2.11296 94.3893 2.25651 94.7676 2.44336L94.3027 3.42773C93.9837 3.2819 93.6328 3.15658 93.25 3.05176C92.8717 2.94238 92.4616 2.8877 92.0195 2.8877ZM99.1768 2.00586C100.466 2.00586 101.408 2.25879 102 2.76465C102.597 3.26595 102.896 3.986 102.896 4.9248C102.896 5.34863 102.825 5.75195 102.684 6.13477C102.547 6.51302 102.324 6.84798 102.014 7.13965C101.704 7.42676 101.296 7.65462 100.79 7.82324C100.289 7.9873 99.6735 8.06934 98.9443 8.06934H97.7275V12H96.5654V2.00586H99.1768ZM99.0674 2.99707H97.7275V7.07129H98.8145C99.4525 7.07129 99.9834 7.00293 100.407 6.86621C100.836 6.72949 101.157 6.50846 101.371 6.20312C101.585 5.89323 101.692 5.48307 101.692 4.97266C101.692 4.30729 101.48 3.81283 101.057 3.48926C100.633 3.16113 99.9697 2.99707 99.0674 2.99707Z" fill="#777777"></path><path d="M92.2871 84.7275C92.2871 84.126 92.3281 83.5381 92.4102 82.9639C92.4967 82.3896 92.6403 81.8564 92.8408 81.3643C93.0413 80.8675 93.3148 80.4323 93.6611 80.0586C94.0075 79.6849 94.4382 79.3932 94.9531 79.1836C95.4727 78.9694 96.0947 78.8623 96.8193 78.8623C97.0244 78.8623 97.2454 78.8737 97.4824 78.8965C97.7194 78.9147 97.9154 78.9466 98.0703 78.9922V79.9697C97.9017 79.9105 97.708 79.8672 97.4893 79.8398C97.2751 79.8125 97.0586 79.7988 96.8398 79.7988C95.9922 79.7988 95.3245 79.9834 94.8369 80.3525C94.3538 80.7217 94.0052 81.223 93.791 81.8564C93.5768 82.4854 93.4538 83.194 93.4219 83.9824H93.4971C93.6383 83.7546 93.8184 83.5495 94.0371 83.3672C94.2559 83.1803 94.5202 83.0322 94.8301 82.9229C95.1445 82.8135 95.5091 82.7588 95.9238 82.7588C96.5072 82.7588 97.0153 82.8773 97.4482 83.1143C97.8857 83.3512 98.223 83.6953 98.46 84.1465C98.7015 84.5977 98.8223 85.1445 98.8223 85.7871C98.8223 86.4753 98.6947 87.07 98.4395 87.5713C98.1842 88.0726 97.8197 88.46 97.3457 88.7334C96.8763 89.0023 96.3158 89.1367 95.6641 89.1367C95.1764 89.1367 94.7275 89.0433 94.3174 88.8564C93.9072 88.6696 93.5495 88.3916 93.2441 88.0225C92.9434 87.6533 92.7087 87.1953 92.54 86.6484C92.3714 86.097 92.2871 85.4567 92.2871 84.7275ZM95.6504 88.1797C96.2702 88.1797 96.7669 87.9814 97.1406 87.585C97.5143 87.1885 97.7012 86.5892 97.7012 85.7871C97.7012 85.1309 97.5348 84.6113 97.2021 84.2285C96.8695 83.8457 96.3682 83.6543 95.6982 83.6543C95.2425 83.6543 94.846 83.75 94.5088 83.9414C94.1715 84.1283 93.9095 84.3652 93.7227 84.6523C93.5358 84.9395 93.4424 85.2311 93.4424 85.5273C93.4424 85.8281 93.4857 86.1335 93.5723 86.4434C93.6634 86.7533 93.8001 87.0404 93.9824 87.3047C94.1647 87.569 94.3949 87.7809 94.6729 87.9404C94.9508 88.0999 95.2767 88.1797 95.6504 88.1797Z" fill="#777777"></path><path d="M92.4033 120H91.2959V112.918C91.2959 112.649 91.2959 112.419 91.2959 112.228C91.3005 112.032 91.305 111.854 91.3096 111.694C91.3187 111.53 91.3301 111.364 91.3438 111.195C91.2025 111.341 91.0703 111.466 90.9473 111.571C90.8242 111.672 90.6715 111.797 90.4893 111.947L89.3477 112.863L88.7529 112.091L91.46 110.006H92.4033V120ZM102.37 112.337C102.37 112.784 102.284 113.171 102.11 113.499C101.937 113.827 101.696 114.096 101.386 114.306C101.076 114.511 100.711 114.654 100.292 114.736V114.791C101.085 114.891 101.68 115.146 102.076 115.557C102.477 115.967 102.678 116.505 102.678 117.17C102.678 117.749 102.541 118.261 102.268 118.708C101.999 119.155 101.584 119.506 101.023 119.761C100.467 120.011 99.7542 120.137 98.8838 120.137C98.3551 120.137 97.8652 120.093 97.4141 120.007C96.9674 119.925 96.5391 119.786 96.1289 119.59V118.523C96.5436 118.729 96.9948 118.89 97.4824 119.009C97.9701 119.123 98.4417 119.18 98.8975 119.18C99.8089 119.18 100.467 119 100.873 118.64C101.279 118.275 101.481 117.778 101.481 117.149C101.481 116.716 101.368 116.368 101.14 116.104C100.916 115.835 100.593 115.639 100.169 115.516C99.7497 115.388 99.2438 115.324 98.6514 115.324H97.6533V114.354H98.6582C99.2005 114.354 99.6608 114.274 100.039 114.114C100.417 113.955 100.704 113.731 100.9 113.444C101.101 113.153 101.201 112.809 101.201 112.412C101.201 111.906 101.033 111.517 100.695 111.243C100.358 110.965 99.9001 110.826 99.3213 110.826C98.9658 110.826 98.6423 110.863 98.3506 110.936C98.0589 111.008 97.7855 111.109 97.5303 111.236C97.2751 111.364 97.0199 111.512 96.7646 111.681L96.1904 110.901C96.555 110.619 96.9993 110.375 97.5234 110.17C98.0475 109.965 98.6423 109.862 99.3076 109.862C100.328 109.862 101.094 110.095 101.604 110.56C102.115 111.024 102.37 111.617 102.37 112.337Z" fill="#777777"></path><path d="M94.7275 151H88.1787V150.05L90.8516 147.336C91.3483 146.835 91.7653 146.388 92.1025 145.996C92.4443 145.604 92.7041 145.219 92.8818 144.841C93.0596 144.458 93.1484 144.039 93.1484 143.583C93.1484 143.018 92.9798 142.587 92.6426 142.291C92.3099 141.99 91.8701 141.84 91.3232 141.84C90.8447 141.84 90.4209 141.922 90.0518 142.086C89.6826 142.25 89.3044 142.482 88.917 142.783L88.3086 142.018C88.5729 141.794 88.86 141.596 89.1699 141.423C89.4844 141.25 89.8193 141.113 90.1748 141.013C90.5348 140.912 90.9176 140.862 91.3232 140.862C91.9385 140.862 92.4694 140.969 92.916 141.184C93.3626 141.398 93.7067 141.703 93.9482 142.1C94.1943 142.496 94.3174 142.968 94.3174 143.515C94.3174 144.043 94.2126 144.535 94.0029 144.991C93.7933 145.442 93.4993 145.891 93.1211 146.338C92.7428 146.78 92.3008 147.249 91.7949 147.746L89.6211 149.913V149.961H94.7275V151ZM102.794 145.989C102.794 146.8 102.732 147.525 102.609 148.163C102.486 148.801 102.293 149.341 102.028 149.783C101.764 150.225 101.422 150.562 101.003 150.795C100.584 151.023 100.08 151.137 99.4922 151.137C98.7493 151.137 98.1341 150.934 97.6465 150.528C97.1634 150.123 96.8011 149.537 96.5596 148.771C96.3226 148.001 96.2041 147.074 96.2041 145.989C96.2041 144.923 96.3112 144.007 96.5254 143.241C96.7441 142.471 97.0951 141.881 97.5781 141.471C98.0612 141.056 98.6992 140.849 99.4922 140.849C100.244 140.849 100.864 141.054 101.352 141.464C101.839 141.869 102.201 142.457 102.438 143.228C102.675 143.993 102.794 144.914 102.794 145.989ZM97.3457 145.989C97.3457 146.919 97.4163 147.694 97.5576 148.313C97.6989 148.933 97.9268 149.398 98.2412 149.708C98.5602 150.013 98.9772 150.166 99.4922 150.166C100.007 150.166 100.422 150.013 100.736 149.708C101.055 149.403 101.285 148.94 101.427 148.32C101.573 147.701 101.646 146.924 101.646 145.989C101.646 145.073 101.575 144.308 101.434 143.692C101.292 143.073 101.064 142.608 100.75 142.298C100.436 141.983 100.016 141.826 99.4922 141.826C98.9681 141.826 98.5488 141.983 98.2344 142.298C97.9199 142.608 97.6921 143.073 97.5508 143.692C97.4141 144.308 97.3457 145.073 97.3457 145.989Z" fill="#777777"></path><path d="M94.7275 182H88.1787V181.05L90.8516 178.336C91.3483 177.835 91.7653 177.388 92.1025 176.996C92.4443 176.604 92.7041 176.219 92.8818 175.841C93.0596 175.458 93.1484 175.039 93.1484 174.583C93.1484 174.018 92.9798 173.587 92.6426 173.291C92.3099 172.99 91.8701 172.84 91.3232 172.84C90.8447 172.84 90.4209 172.922 90.0518 173.086C89.6826 173.25 89.3044 173.482 88.917 173.783L88.3086 173.018C88.5729 172.794 88.86 172.596 89.1699 172.423C89.4844 172.25 89.8193 172.113 90.1748 172.013C90.5348 171.912 90.9176 171.862 91.3232 171.862C91.9385 171.862 92.4694 171.969 92.916 172.184C93.3626 172.398 93.7067 172.703 93.9482 173.1C94.1943 173.496 94.3174 173.968 94.3174 174.515C94.3174 175.043 94.2126 175.535 94.0029 175.991C93.7933 176.442 93.4993 176.891 93.1211 177.338C92.7428 177.78 92.3008 178.249 91.7949 178.746L89.6211 180.913V180.961H94.7275V182ZM97.4824 182L101.584 173.045H96.1357V172.006H102.801V172.881L98.7266 182H97.4824Z" fill="#777777"></path><path d="M136.728 182H130.179V181.05L132.852 178.336C133.348 177.835 133.765 177.388 134.103 176.996C134.444 176.604 134.704 176.219 134.882 175.841C135.06 175.458 135.148 175.039 135.148 174.583C135.148 174.018 134.98 173.587 134.643 173.291C134.31 172.99 133.87 172.84 133.323 172.84C132.845 172.84 132.421 172.922 132.052 173.086C131.683 173.25 131.304 173.482 130.917 173.783L130.309 173.018C130.573 172.794 130.86 172.596 131.17 172.423C131.484 172.25 131.819 172.113 132.175 172.013C132.535 171.912 132.918 171.862 133.323 171.862C133.938 171.862 134.469 171.969 134.916 172.184C135.363 172.398 135.707 172.703 135.948 173.1C136.194 173.496 136.317 173.968 136.317 174.515C136.317 175.043 136.213 175.535 136.003 175.991C135.793 176.442 135.499 176.891 135.121 177.338C134.743 177.78 134.301 178.249 133.795 178.746L131.621 180.913V180.961H136.728V182ZM141.492 171.862C142.071 171.862 142.584 171.953 143.03 172.136C143.477 172.318 143.826 172.587 144.076 172.942C144.331 173.293 144.459 173.726 144.459 174.241C144.459 174.647 144.37 175.002 144.192 175.308C144.019 175.608 143.785 175.873 143.488 176.101C143.192 176.324 142.864 176.524 142.504 176.702C142.932 176.898 143.317 177.119 143.659 177.365C144.006 177.611 144.279 177.901 144.479 178.233C144.68 178.566 144.78 178.96 144.78 179.416C144.78 179.977 144.644 180.462 144.37 180.872C144.101 181.278 143.723 181.59 143.235 181.809C142.748 182.027 142.176 182.137 141.52 182.137C140.813 182.137 140.212 182.032 139.715 181.822C139.223 181.608 138.847 181.303 138.587 180.906C138.332 180.505 138.204 180.024 138.204 179.464C138.204 179.004 138.302 178.605 138.498 178.268C138.694 177.926 138.954 177.632 139.277 177.386C139.601 177.14 139.954 176.932 140.337 176.764C140.004 176.581 139.699 176.374 139.421 176.142C139.147 175.909 138.929 175.638 138.765 175.328C138.605 175.014 138.525 174.649 138.525 174.234C138.525 173.729 138.653 173.3 138.908 172.949C139.168 172.594 139.521 172.325 139.968 172.143C140.419 171.956 140.927 171.862 141.492 171.862ZM139.318 179.471C139.318 179.981 139.498 180.403 139.858 180.735C140.218 181.063 140.763 181.228 141.492 181.228C142.185 181.228 142.72 181.063 143.099 180.735C143.477 180.403 143.666 179.967 143.666 179.43C143.666 179.097 143.579 178.805 143.406 178.555C143.233 178.299 142.987 178.072 142.668 177.871C142.349 177.671 141.973 177.488 141.54 177.324L141.294 177.235C140.875 177.409 140.517 177.602 140.221 177.816C139.929 178.026 139.706 178.265 139.551 178.534C139.396 178.803 139.318 179.115 139.318 179.471ZM141.479 172.792C140.941 172.792 140.501 172.922 140.159 173.182C139.817 173.437 139.646 173.806 139.646 174.289C139.646 174.635 139.729 174.929 139.893 175.171C140.061 175.408 140.289 175.613 140.576 175.786C140.863 175.955 141.185 176.112 141.54 176.258C141.886 176.112 142.194 175.952 142.463 175.779C142.732 175.602 142.944 175.392 143.099 175.15C143.254 174.909 143.331 174.619 143.331 174.282C143.331 173.799 143.16 173.43 142.818 173.175C142.481 172.92 142.035 172.792 141.479 172.792Z" fill="#777777"></path><path d="M136.358 50.3369C136.358 50.7835 136.272 51.1709 136.099 51.499C135.925 51.8271 135.684 52.096 135.374 52.3057C135.064 52.5107 134.7 52.6543 134.28 52.7363V52.791C135.073 52.8913 135.668 53.1465 136.064 53.5566C136.465 53.9668 136.666 54.5046 136.666 55.1699C136.666 55.7487 136.529 56.2614 136.256 56.708C135.987 57.1546 135.572 57.5055 135.012 57.7607C134.456 58.0114 133.743 58.1367 132.872 58.1367C132.343 58.1367 131.854 58.0934 131.402 58.0068C130.956 57.9248 130.527 57.7858 130.117 57.5898V56.5234C130.532 56.7285 130.983 56.8903 131.471 57.0088C131.958 57.1227 132.43 57.1797 132.886 57.1797C133.797 57.1797 134.456 56.9997 134.861 56.6396C135.267 56.2751 135.47 55.7783 135.47 55.1494C135.47 54.7165 135.356 54.3678 135.128 54.1035C134.905 53.8346 134.581 53.6387 134.157 53.5156C133.738 53.388 133.232 53.3242 132.64 53.3242H131.642V52.3535H132.646C133.189 52.3535 133.649 52.2738 134.027 52.1143C134.406 51.9548 134.693 51.7314 134.889 51.4443C135.089 51.1527 135.189 50.8086 135.189 50.4121C135.189 49.9062 135.021 49.5166 134.684 49.2432C134.346 48.9652 133.888 48.8262 133.31 48.8262C132.954 48.8262 132.631 48.8626 132.339 48.9355C132.047 49.0085 131.774 49.1087 131.519 49.2363C131.263 49.3639 131.008 49.512 130.753 49.6807L130.179 48.9014C130.543 48.6188 130.988 48.375 131.512 48.1699C132.036 47.9648 132.631 47.8623 133.296 47.8623C134.317 47.8623 135.082 48.0947 135.593 48.5596C136.103 49.0244 136.358 49.6169 136.358 50.3369ZM142.415 58H141.308V50.918C141.308 50.6491 141.308 50.4189 141.308 50.2275C141.312 50.0316 141.317 49.8538 141.321 49.6943C141.33 49.5303 141.342 49.3639 141.355 49.1953C141.214 49.3411 141.082 49.4665 140.959 49.5713C140.836 49.6715 140.683 49.7969 140.501 49.9473L139.359 50.8633L138.765 50.0908L141.472 48.0059H142.415V58Z" fill="#777777"></path><path d="M136.624 12H135.469V7.85742C134.936 8.04883 134.43 8.20378 133.951 8.32227C133.473 8.44076 132.942 8.5 132.358 8.5C131.415 8.5 130.69 8.28353 130.185 7.85059C129.683 7.41309 129.433 6.78646 129.433 5.9707V2.00586H130.595V5.80664C130.595 6.35807 130.741 6.77507 131.032 7.05762C131.328 7.33561 131.809 7.47461 132.475 7.47461C133.035 7.47461 133.536 7.42448 133.979 7.32422C134.425 7.2194 134.922 7.07129 135.469 6.87988V2.00586H136.624V12ZM142.435 12H141.266V3.03125H138.121V2.00586H145.565V3.03125H142.435V12Z" fill="#777777"></path><path d="M135.477 89L139.578 80.0449H134.13V79.0059H140.795V79.8809L136.721 89H135.477Z" fill="#777777"></path><path d="M134.403 120H133.296V112.918C133.296 112.649 133.296 112.419 133.296 112.228C133.3 112.032 133.305 111.854 133.31 111.694C133.319 111.53 133.33 111.364 133.344 111.195C133.202 111.341 133.07 111.466 132.947 111.571C132.824 111.672 132.672 111.797 132.489 111.947L131.348 112.863L130.753 112.091L133.46 110.006H134.403V120ZM145.238 117.683H143.741V120H142.634V117.683H137.801V116.726L142.559 109.951H143.741V116.657H145.238V117.683ZM142.634 116.657V113.39C142.634 113.139 142.636 112.913 142.641 112.713C142.645 112.508 142.652 112.319 142.661 112.146C142.67 111.968 142.677 111.799 142.682 111.64C142.691 111.48 142.698 111.323 142.702 111.168H142.647C142.561 111.35 142.461 111.544 142.347 111.749C142.237 111.95 142.126 112.13 142.012 112.289L138.929 116.657H142.634Z" fill="#777777"></path><path d="M136.728 151H130.179V150.05L132.852 147.336C133.348 146.835 133.765 146.388 134.103 145.996C134.444 145.604 134.704 145.219 134.882 144.841C135.06 144.458 135.148 144.039 135.148 143.583C135.148 143.018 134.98 142.587 134.643 142.291C134.31 141.99 133.87 141.84 133.323 141.84C132.845 141.84 132.421 141.922 132.052 142.086C131.683 142.25 131.304 142.482 130.917 142.783L130.309 142.018C130.573 141.794 130.86 141.596 131.17 141.423C131.484 141.25 131.819 141.113 132.175 141.013C132.535 140.912 132.918 140.862 133.323 140.862C133.938 140.862 134.469 140.969 134.916 141.184C135.363 141.398 135.707 141.703 135.948 142.1C136.194 142.496 136.317 142.968 136.317 143.515C136.317 144.043 136.213 144.535 136.003 144.991C135.793 145.442 135.499 145.891 135.121 146.338C134.743 146.78 134.301 147.249 133.795 147.746L131.621 149.913V149.961H136.728V151ZM142.415 151H141.308V143.918C141.308 143.649 141.308 143.419 141.308 143.228C141.312 143.032 141.317 142.854 141.321 142.694C141.33 142.53 141.342 142.364 141.355 142.195C141.214 142.341 141.082 142.466 140.959 142.571C140.836 142.672 140.683 142.797 140.501 142.947L139.359 143.863L138.765 143.091L141.472 141.006H142.415V151Z" fill="#777777"></path><path d="M180.409 58H179.302V50.918C179.302 50.6491 179.302 50.4189 179.302 50.2275C179.306 50.0316 179.311 49.8538 179.315 49.6943C179.325 49.5303 179.336 49.3639 179.35 49.1953C179.208 49.3411 179.076 49.4665 178.953 49.5713C178.83 49.6715 178.677 49.7969 178.495 49.9473L177.354 50.8633L176.759 50.0908L179.466 48.0059H180.409V58Z" fill="#777777"></path><path d="M179.486 78.8623C180.065 78.8623 180.578 78.9535 181.024 79.1357C181.471 79.318 181.82 79.5869 182.07 79.9424C182.326 80.2933 182.453 80.7262 182.453 81.2412C182.453 81.6468 182.364 82.0023 182.187 82.3076C182.013 82.6084 181.779 82.8727 181.482 83.1006C181.186 83.3239 180.858 83.5244 180.498 83.7021C180.926 83.8981 181.312 84.1191 181.653 84.3652C182 84.6113 182.273 84.9007 182.474 85.2334C182.674 85.5661 182.774 85.9603 182.774 86.416C182.774 86.9766 182.638 87.4619 182.364 87.8721C182.095 88.2777 181.717 88.5898 181.229 88.8086C180.742 89.0273 180.17 89.1367 179.514 89.1367C178.807 89.1367 178.206 89.0319 177.709 88.8223C177.217 88.6081 176.841 88.3027 176.581 87.9062C176.326 87.5052 176.198 87.0244 176.198 86.4639C176.198 86.0036 176.296 85.6048 176.492 85.2676C176.688 84.9258 176.948 84.6318 177.271 84.3857C177.595 84.1396 177.948 83.9323 178.331 83.7637C177.998 83.5814 177.693 83.374 177.415 83.1416C177.142 82.9092 176.923 82.638 176.759 82.3281C176.599 82.0137 176.52 81.6491 176.52 81.2344C176.52 80.7285 176.647 80.3001 176.902 79.9492C177.162 79.5938 177.515 79.3249 177.962 79.1426C178.413 78.9557 178.921 78.8623 179.486 78.8623ZM177.312 86.4707C177.312 86.9811 177.493 87.4027 177.853 87.7354C178.213 88.0635 178.757 88.2275 179.486 88.2275C180.179 88.2275 180.715 88.0635 181.093 87.7354C181.471 87.4027 181.66 86.9674 181.66 86.4297C181.66 86.097 181.574 85.8053 181.4 85.5547C181.227 85.2995 180.981 85.0716 180.662 84.8711C180.343 84.6706 179.967 84.4883 179.534 84.3242L179.288 84.2354C178.869 84.4085 178.511 84.6022 178.215 84.8164C177.923 85.026 177.7 85.2653 177.545 85.5342C177.39 85.8031 177.312 86.1152 177.312 86.4707ZM179.473 79.792C178.935 79.792 178.495 79.9219 178.153 80.1816C177.812 80.4368 177.641 80.806 177.641 81.2891C177.641 81.6354 177.723 81.9294 177.887 82.1709C178.055 82.4079 178.283 82.613 178.57 82.7861C178.857 82.9548 179.179 83.112 179.534 83.2578C179.881 83.112 180.188 82.9525 180.457 82.7793C180.726 82.6016 180.938 82.3919 181.093 82.1504C181.248 81.9089 181.325 81.6195 181.325 81.2822C181.325 80.7992 181.154 80.43 180.812 80.1748C180.475 79.9196 180.029 79.792 179.473 79.792Z" fill="#777777"></path><path d="M178.728 182H172.179V181.05L174.852 178.336C175.348 177.835 175.765 177.388 176.103 176.996C176.444 176.604 176.704 176.219 176.882 175.841C177.06 175.458 177.148 175.039 177.148 174.583C177.148 174.018 176.98 173.587 176.643 173.291C176.31 172.99 175.87 172.84 175.323 172.84C174.845 172.84 174.421 172.922 174.052 173.086C173.683 173.25 173.304 173.482 172.917 173.783L172.309 173.018C172.573 172.794 172.86 172.596 173.17 172.423C173.484 172.25 173.819 172.113 174.175 172.013C174.535 171.912 174.918 171.862 175.323 171.862C175.938 171.862 176.469 171.969 176.916 172.184C177.363 172.398 177.707 172.703 177.948 173.1C178.194 173.496 178.317 173.968 178.317 174.515C178.317 175.043 178.213 175.535 178.003 175.991C177.793 176.442 177.499 176.891 177.121 177.338C176.743 177.78 176.301 178.249 175.795 178.746L173.621 180.913V180.961H178.728V182ZM186.753 176.265C186.753 176.871 186.71 177.461 186.623 178.035C186.541 178.609 186.397 179.145 186.192 179.642C185.992 180.138 185.718 180.574 185.372 180.947C185.026 181.321 184.59 181.615 184.066 181.829C183.547 182.039 182.925 182.144 182.2 182.144C182.004 182.144 181.781 182.13 181.53 182.103C181.28 182.08 181.075 182.046 180.915 182V181.016C181.084 181.075 181.282 181.123 181.51 181.159C181.738 181.191 181.961 181.207 182.18 181.207C183.032 181.207 183.702 181.025 184.189 180.66C184.677 180.291 185.028 179.792 185.242 179.163C185.456 178.53 185.577 177.819 185.604 177.03H185.522C185.386 177.249 185.206 177.452 184.982 177.639C184.764 177.821 184.497 177.969 184.183 178.083C183.868 178.192 183.501 178.247 183.082 178.247C182.503 178.247 181.997 178.129 181.564 177.892C181.136 177.655 180.801 177.311 180.56 176.859C180.323 176.408 180.204 175.864 180.204 175.226C180.204 174.537 180.334 173.943 180.594 173.441C180.858 172.936 181.227 172.546 181.701 172.272C182.175 171.999 182.733 171.862 183.376 171.862C183.868 171.862 184.319 171.956 184.729 172.143C185.14 172.329 185.495 172.61 185.796 172.983C186.101 173.353 186.336 173.811 186.5 174.357C186.669 174.904 186.753 175.54 186.753 176.265ZM183.376 172.826C182.77 172.826 182.278 173.024 181.899 173.421C181.526 173.817 181.339 174.414 181.339 175.212C181.339 175.873 181.501 176.395 181.824 176.777C182.148 177.16 182.647 177.352 183.321 177.352C183.786 177.352 184.187 177.258 184.524 177.071C184.866 176.884 185.128 176.647 185.311 176.36C185.497 176.073 185.591 175.779 185.591 175.479C185.591 175.178 185.545 174.872 185.454 174.562C185.368 174.253 185.233 173.968 185.051 173.708C184.868 173.444 184.638 173.232 184.36 173.072C184.082 172.908 183.754 172.826 183.376 172.826Z" fill="#777777"></path><path d="M171.412 12V2.00586H178.856V12H177.708V3.03125H172.574V12H171.412ZM184.681 12H183.512V3.03125H180.367V2.00586H187.812V3.03125H184.681V12Z" fill="#777777"></path><path d="M176.403 120H175.296V112.918C175.296 112.649 175.296 112.419 175.296 112.228C175.3 112.032 175.305 111.854 175.31 111.694C175.319 111.53 175.33 111.364 175.344 111.195C175.202 111.341 175.07 111.466 174.947 111.571C174.824 111.672 174.672 111.797 174.489 111.947L173.348 112.863L172.753 112.091L175.46 110.006H176.403V120ZM183.349 113.889C184.028 113.889 184.618 114.005 185.119 114.237C185.62 114.465 186.008 114.798 186.281 115.235C186.559 115.673 186.698 116.204 186.698 116.828C186.698 117.512 186.55 118.102 186.254 118.599C185.958 119.091 185.532 119.471 184.976 119.74C184.42 120.005 183.754 120.137 182.979 120.137C182.46 120.137 181.977 120.091 181.53 120C181.084 119.909 180.708 119.772 180.402 119.59V118.51C180.735 118.71 181.138 118.87 181.612 118.988C182.086 119.107 182.547 119.166 182.993 119.166C183.499 119.166 183.941 119.086 184.319 118.927C184.702 118.763 184.998 118.517 185.208 118.188C185.422 117.856 185.529 117.439 185.529 116.938C185.529 116.272 185.324 115.759 184.914 115.399C184.508 115.035 183.866 114.853 182.986 114.853C182.704 114.853 182.394 114.875 182.057 114.921C181.719 114.966 181.441 115.017 181.223 115.071L180.648 114.695L181.031 110.006H186.001V111.045H182.002L181.749 114.06C181.922 114.023 182.146 113.987 182.419 113.95C182.692 113.909 183.002 113.889 183.349 113.889Z" fill="#777777"></path><path d="M178.728 151H172.179V150.05L174.852 147.336C175.348 146.835 175.765 146.388 176.103 145.996C176.444 145.604 176.704 145.219 176.882 144.841C177.06 144.458 177.148 144.039 177.148 143.583C177.148 143.018 176.98 142.587 176.643 142.291C176.31 141.99 175.87 141.84 175.323 141.84C174.845 141.84 174.421 141.922 174.052 142.086C173.683 142.25 173.304 142.482 172.917 142.783L172.309 142.018C172.573 141.794 172.86 141.596 173.17 141.423C173.484 141.25 173.819 141.113 174.175 141.013C174.535 140.912 174.918 140.862 175.323 140.862C175.938 140.862 176.469 140.969 176.916 141.184C177.363 141.398 177.707 141.703 177.948 142.1C178.194 142.496 178.317 142.968 178.317 143.515C178.317 144.043 178.213 144.535 178.003 144.991C177.793 145.442 177.499 145.891 177.121 146.338C176.743 146.78 176.301 147.249 175.795 147.746L173.621 149.913V149.961H178.728V151ZM186.739 151H180.19V150.05L182.863 147.336C183.36 146.835 183.777 146.388 184.114 145.996C184.456 145.604 184.716 145.219 184.894 144.841C185.071 144.458 185.16 144.039 185.16 143.583C185.16 143.018 184.992 142.587 184.654 142.291C184.322 141.99 183.882 141.84 183.335 141.84C182.856 141.84 182.433 141.922 182.063 142.086C181.694 142.25 181.316 142.482 180.929 142.783L180.32 142.018C180.585 141.794 180.872 141.596 181.182 141.423C181.496 141.25 181.831 141.113 182.187 141.013C182.547 140.912 182.929 140.862 183.335 140.862C183.95 140.862 184.481 140.969 184.928 141.184C185.374 141.398 185.718 141.703 185.96 142.1C186.206 142.496 186.329 142.968 186.329 143.515C186.329 144.043 186.224 144.535 186.015 144.991C185.805 145.442 185.511 145.891 185.133 146.338C184.755 146.78 184.312 147.249 183.807 147.746L181.633 149.913V149.961H186.739V151Z" fill="#777777"></path><path d="M224.733 58H218.185V57.0498L220.857 54.3359C221.354 53.8346 221.771 53.388 222.108 52.9961C222.45 52.6042 222.71 52.2191 222.888 51.8408C223.065 51.458 223.154 51.0387 223.154 50.583C223.154 50.0179 222.986 49.5872 222.648 49.291C222.316 48.9902 221.876 48.8398 221.329 48.8398C220.851 48.8398 220.427 48.9219 220.058 49.0859C219.688 49.25 219.31 49.4824 218.923 49.7832L218.314 49.0176C218.579 48.7943 218.866 48.596 219.176 48.4229C219.49 48.2497 219.825 48.113 220.181 48.0127C220.541 47.9124 220.924 47.8623 221.329 47.8623C221.944 47.8623 222.475 47.9694 222.922 48.1836C223.368 48.3978 223.713 48.7031 223.954 49.0996C224.2 49.4961 224.323 49.9678 224.323 50.5146C224.323 51.0433 224.218 51.5355 224.009 51.9912C223.799 52.4424 223.505 52.8913 223.127 53.3379C222.749 53.7799 222.307 54.2493 221.801 54.7461L219.627 56.9131V56.9609H224.733V58Z" fill="#777777"></path><path d="M217.944 2.8877C217.393 2.8877 216.896 2.9834 216.454 3.1748C216.017 3.36165 215.643 3.63509 215.333 3.99512C215.028 4.35059 214.793 4.78125 214.629 5.28711C214.465 5.79297 214.383 6.36263 214.383 6.99609C214.383 7.83464 214.513 8.5638 214.772 9.18359C215.037 9.79883 215.429 10.2751 215.948 10.6123C216.472 10.9495 217.126 11.1182 217.91 11.1182C218.357 11.1182 218.776 11.0817 219.168 11.0088C219.564 10.9313 219.95 10.8356 220.323 10.7217V11.7334C219.959 11.8701 219.576 11.9704 219.175 12.0342C218.774 12.1025 218.298 12.1367 217.746 12.1367C216.73 12.1367 215.88 11.9271 215.196 11.5078C214.517 11.084 214.007 10.487 213.665 9.7168C213.328 8.94661 213.159 8.03743 213.159 6.98926C213.159 6.23275 213.264 5.54232 213.474 4.91797C213.688 4.28906 213.998 3.74674 214.403 3.29102C214.813 2.83529 215.315 2.48438 215.907 2.23828C216.504 1.98763 217.188 1.8623 217.958 1.8623C218.464 1.8623 218.951 1.91243 219.421 2.0127C219.89 2.11296 220.314 2.25651 220.692 2.44336L220.228 3.42773C219.909 3.2819 219.558 3.15658 219.175 3.05176C218.797 2.94238 218.386 2.8877 217.944 2.8877ZM222.49 12V2.00586H228.362V3.03125H223.652V6.25781H225.204C226.166 6.25781 226.918 6.3763 227.46 6.61328C228.002 6.85026 228.383 7.18066 228.602 7.60449C228.825 8.02832 228.937 8.52051 228.937 9.08105C228.937 10.0016 228.661 10.7194 228.109 11.2344C227.562 11.7448 226.653 12 225.382 12H222.49ZM223.652 11.002H225.259C226.161 11.002 226.799 10.8447 227.173 10.5303C227.551 10.2113 227.74 9.72819 227.74 9.08105C227.74 8.62988 227.649 8.27214 227.467 8.00781C227.285 7.74349 226.997 7.55436 226.605 7.44043C226.214 7.3265 225.699 7.26953 225.061 7.26953H223.652V11.002Z" fill="#777777"></path><path d="M224.747 83.2646C224.747 83.8708 224.704 84.4609 224.617 85.0352C224.535 85.6094 224.392 86.1449 224.187 86.6416C223.986 87.1383 223.713 87.5736 223.366 87.9473C223.02 88.321 222.585 88.6149 222.061 88.8291C221.541 89.0387 220.919 89.1436 220.194 89.1436C219.998 89.1436 219.775 89.1299 219.524 89.1025C219.274 89.0798 219.069 89.0456 218.909 89V88.0156C219.078 88.0749 219.276 88.1227 219.504 88.1592C219.732 88.1911 219.955 88.207 220.174 88.207C221.026 88.207 221.696 88.0247 222.184 87.6602C222.671 87.291 223.022 86.792 223.236 86.1631C223.451 85.5296 223.571 84.8187 223.599 84.0303H223.517C223.38 84.249 223.2 84.4518 222.977 84.6387C222.758 84.821 222.491 84.9691 222.177 85.083C221.862 85.1924 221.495 85.2471 221.076 85.2471C220.497 85.2471 219.992 85.1286 219.559 84.8916C219.13 84.6546 218.795 84.3105 218.554 83.8594C218.317 83.4082 218.198 82.8636 218.198 82.2256C218.198 81.5374 218.328 80.9427 218.588 80.4414C218.852 79.9355 219.221 79.5459 219.695 79.2725C220.169 78.999 220.728 78.8623 221.37 78.8623C221.862 78.8623 222.313 78.9557 222.724 79.1426C223.134 79.3294 223.489 79.6097 223.79 79.9834C224.095 80.3525 224.33 80.8105 224.494 81.3574C224.663 81.9043 224.747 82.54 224.747 83.2646ZM221.37 79.8262C220.764 79.8262 220.272 80.0244 219.894 80.4209C219.52 80.8174 219.333 81.4144 219.333 82.2119C219.333 82.8727 219.495 83.3945 219.818 83.7773C220.142 84.1602 220.641 84.3516 221.315 84.3516C221.78 84.3516 222.181 84.2581 222.519 84.0713C222.86 83.8844 223.122 83.6475 223.305 83.3604C223.492 83.0732 223.585 82.7793 223.585 82.4785C223.585 82.1777 223.539 81.8724 223.448 81.5625C223.362 81.2526 223.227 80.9678 223.045 80.708C222.863 80.4437 222.632 80.2318 222.354 80.0723C222.076 79.9082 221.748 79.8262 221.37 79.8262Z" fill="#777777"></path><path d="M218.403 120H217.296V112.918C217.296 112.649 217.296 112.419 217.296 112.228C217.3 112.032 217.305 111.854 217.31 111.694C217.319 111.53 217.33 111.364 217.344 111.195C217.202 111.341 217.07 111.466 216.947 111.571C216.824 111.672 216.672 111.797 216.489 111.947L215.348 112.863L214.753 112.091L217.46 110.006H218.403V120ZM222.293 115.728C222.293 115.126 222.334 114.538 222.416 113.964C222.503 113.39 222.646 112.856 222.847 112.364C223.047 111.868 223.321 111.432 223.667 111.059C224.013 110.685 224.444 110.393 224.959 110.184C225.479 109.969 226.101 109.862 226.825 109.862C227.03 109.862 227.251 109.874 227.488 109.896C227.725 109.915 227.921 109.947 228.076 109.992V110.97C227.908 110.91 227.714 110.867 227.495 110.84C227.281 110.812 227.064 110.799 226.846 110.799C225.998 110.799 225.33 110.983 224.843 111.353C224.36 111.722 224.011 112.223 223.797 112.856C223.583 113.485 223.46 114.194 223.428 114.982H223.503C223.644 114.755 223.824 114.549 224.043 114.367C224.262 114.18 224.526 114.032 224.836 113.923C225.15 113.813 225.515 113.759 225.93 113.759C226.513 113.759 227.021 113.877 227.454 114.114C227.892 114.351 228.229 114.695 228.466 115.146C228.707 115.598 228.828 116.145 228.828 116.787C228.828 117.475 228.701 118.07 228.445 118.571C228.19 119.073 227.826 119.46 227.352 119.733C226.882 120.002 226.322 120.137 225.67 120.137C225.182 120.137 224.733 120.043 224.323 119.856C223.913 119.67 223.555 119.392 223.25 119.022C222.949 118.653 222.715 118.195 222.546 117.648C222.377 117.097 222.293 116.457 222.293 115.728ZM225.656 119.18C226.276 119.18 226.773 118.981 227.146 118.585C227.52 118.188 227.707 117.589 227.707 116.787C227.707 116.131 227.541 115.611 227.208 115.229C226.875 114.846 226.374 114.654 225.704 114.654C225.248 114.654 224.852 114.75 224.515 114.941C224.177 115.128 223.915 115.365 223.729 115.652C223.542 115.939 223.448 116.231 223.448 116.527C223.448 116.828 223.492 117.133 223.578 117.443C223.669 117.753 223.806 118.04 223.988 118.305C224.171 118.569 224.401 118.781 224.679 118.94C224.957 119.1 225.283 119.18 225.656 119.18Z" fill="#777777"></path><path d="M220.728 151H214.179V150.05L216.852 147.336C217.348 146.835 217.765 146.388 218.103 145.996C218.444 145.604 218.704 145.219 218.882 144.841C219.06 144.458 219.148 144.039 219.148 143.583C219.148 143.018 218.98 142.587 218.643 142.291C218.31 141.99 217.87 141.84 217.323 141.84C216.845 141.84 216.421 141.922 216.052 142.086C215.683 142.25 215.304 142.482 214.917 142.783L214.309 142.018C214.573 141.794 214.86 141.596 215.17 141.423C215.484 141.25 215.819 141.113 216.175 141.013C216.535 140.912 216.918 140.862 217.323 140.862C217.938 140.862 218.469 140.969 218.916 141.184C219.363 141.398 219.707 141.703 219.948 142.1C220.194 142.496 220.317 142.968 220.317 143.515C220.317 144.043 220.213 144.535 220.003 144.991C219.793 145.442 219.499 145.891 219.121 146.338C218.743 146.78 218.301 147.249 217.795 147.746L215.621 149.913V149.961H220.728V151ZM228.37 143.337C228.37 143.784 228.284 144.171 228.11 144.499C227.937 144.827 227.696 145.096 227.386 145.306C227.076 145.511 226.711 145.654 226.292 145.736V145.791C227.085 145.891 227.68 146.146 228.076 146.557C228.477 146.967 228.678 147.505 228.678 148.17C228.678 148.749 228.541 149.261 228.268 149.708C227.999 150.155 227.584 150.506 227.023 150.761C226.467 151.011 225.754 151.137 224.884 151.137C224.355 151.137 223.865 151.093 223.414 151.007C222.967 150.925 222.539 150.786 222.129 150.59V149.523C222.544 149.729 222.995 149.89 223.482 150.009C223.97 150.123 224.442 150.18 224.897 150.18C225.809 150.18 226.467 150 226.873 149.64C227.279 149.275 227.481 148.778 227.481 148.149C227.481 147.716 227.368 147.368 227.14 147.104C226.916 146.835 226.593 146.639 226.169 146.516C225.75 146.388 225.244 146.324 224.651 146.324H223.653V145.354H224.658C225.201 145.354 225.661 145.274 226.039 145.114C226.417 144.955 226.704 144.731 226.9 144.444C227.101 144.153 227.201 143.809 227.201 143.412C227.201 142.906 227.033 142.517 226.695 142.243C226.358 141.965 225.9 141.826 225.321 141.826C224.966 141.826 224.642 141.863 224.351 141.936C224.059 142.008 223.785 142.109 223.53 142.236C223.275 142.364 223.02 142.512 222.765 142.681L222.19 141.901C222.555 141.619 222.999 141.375 223.523 141.17C224.048 140.965 224.642 140.862 225.308 140.862C226.328 140.862 227.094 141.095 227.604 141.56C228.115 142.024 228.37 142.617 228.37 143.337Z" fill="#777777"></path><path d="M220.358 174.337C220.358 174.784 220.272 175.171 220.099 175.499C219.925 175.827 219.684 176.096 219.374 176.306C219.064 176.511 218.7 176.654 218.28 176.736V176.791C219.073 176.891 219.668 177.146 220.064 177.557C220.465 177.967 220.666 178.505 220.666 179.17C220.666 179.749 220.529 180.261 220.256 180.708C219.987 181.155 219.572 181.506 219.012 181.761C218.456 182.011 217.743 182.137 216.872 182.137C216.343 182.137 215.854 182.093 215.402 182.007C214.956 181.925 214.527 181.786 214.117 181.59V180.523C214.532 180.729 214.983 180.89 215.471 181.009C215.958 181.123 216.43 181.18 216.886 181.18C217.797 181.18 218.456 181 218.861 180.64C219.267 180.275 219.47 179.778 219.47 179.149C219.47 178.716 219.356 178.368 219.128 178.104C218.905 177.835 218.581 177.639 218.157 177.516C217.738 177.388 217.232 177.324 216.64 177.324H215.642V176.354H216.646C217.189 176.354 217.649 176.274 218.027 176.114C218.406 175.955 218.693 175.731 218.889 175.444C219.089 175.153 219.189 174.809 219.189 174.412C219.189 173.906 219.021 173.517 218.684 173.243C218.346 172.965 217.888 172.826 217.31 172.826C216.954 172.826 216.631 172.863 216.339 172.936C216.047 173.008 215.774 173.109 215.519 173.236C215.263 173.364 215.008 173.512 214.753 173.681L214.179 172.901C214.543 172.619 214.988 172.375 215.512 172.17C216.036 171.965 216.631 171.862 217.296 171.862C218.317 171.862 219.082 172.095 219.593 172.56C220.103 173.024 220.358 173.617 220.358 174.337ZM228.794 176.989C228.794 177.8 228.732 178.525 228.609 179.163C228.486 179.801 228.293 180.341 228.028 180.783C227.764 181.225 227.422 181.562 227.003 181.795C226.584 182.023 226.08 182.137 225.492 182.137C224.749 182.137 224.134 181.934 223.646 181.528C223.163 181.123 222.801 180.537 222.56 179.771C222.323 179.001 222.204 178.074 222.204 176.989C222.204 175.923 222.311 175.007 222.525 174.241C222.744 173.471 223.095 172.881 223.578 172.471C224.061 172.056 224.699 171.849 225.492 171.849C226.244 171.849 226.864 172.054 227.352 172.464C227.839 172.869 228.201 173.457 228.438 174.228C228.675 174.993 228.794 175.914 228.794 176.989ZM223.346 176.989C223.346 177.919 223.416 178.694 223.558 179.313C223.699 179.933 223.927 180.398 224.241 180.708C224.56 181.013 224.977 181.166 225.492 181.166C226.007 181.166 226.422 181.013 226.736 180.708C227.055 180.403 227.285 179.94 227.427 179.32C227.573 178.701 227.646 177.924 227.646 176.989C227.646 176.073 227.575 175.308 227.434 174.692C227.292 174.073 227.064 173.608 226.75 173.298C226.436 172.983 226.016 172.826 225.492 172.826C224.968 172.826 224.549 172.983 224.234 173.298C223.92 173.608 223.692 174.073 223.551 174.692C223.414 175.308 223.346 176.073 223.346 176.989Z" fill="#777777"></path><path d="M265.364 50.3369C265.364 50.7835 265.278 51.1709 265.104 51.499C264.931 51.8271 264.69 52.096 264.38 52.3057C264.07 52.5107 263.705 52.6543 263.286 52.7363V52.791C264.079 52.8913 264.674 53.1465 265.07 53.5566C265.471 53.9668 265.672 54.5046 265.672 55.1699C265.672 55.7487 265.535 56.2614 265.262 56.708C264.993 57.1546 264.578 57.5055 264.018 57.7607C263.462 58.0114 262.748 58.1367 261.878 58.1367C261.349 58.1367 260.859 58.0934 260.408 58.0068C259.962 57.9248 259.533 57.7858 259.123 57.5898V56.5234C259.538 56.7285 259.989 56.8903 260.477 57.0088C260.964 57.1227 261.436 57.1797 261.892 57.1797C262.803 57.1797 263.462 56.9997 263.867 56.6396C264.273 56.2751 264.476 55.7783 264.476 55.1494C264.476 54.7165 264.362 54.3678 264.134 54.1035C263.91 53.8346 263.587 53.6387 263.163 53.5156C262.744 53.388 262.238 53.3242 261.646 53.3242H260.647V52.3535H261.652C262.195 52.3535 262.655 52.2738 263.033 52.1143C263.411 51.9548 263.699 51.7314 263.895 51.4443C264.095 51.1527 264.195 50.8086 264.195 50.4121C264.195 49.9062 264.027 49.5166 263.689 49.2432C263.352 48.9652 262.894 48.8262 262.315 48.8262C261.96 48.8262 261.636 48.8626 261.345 48.9355C261.053 49.0085 260.78 49.1087 260.524 49.2363C260.269 49.3639 260.014 49.512 259.759 49.6807L259.185 48.9014C259.549 48.6188 259.993 48.375 260.518 48.1699C261.042 47.9648 261.636 47.8623 262.302 47.8623C263.323 47.8623 264.088 48.0947 264.599 48.5596C265.109 49.0244 265.364 49.6169 265.364 50.3369Z" fill="#777777"></path><path d="M255.433 2.00586H258.263C259.511 2.00586 260.45 2.19271 261.079 2.56641C261.708 2.9401 262.022 3.57585 262.022 4.47363C262.022 4.861 261.947 5.20964 261.797 5.51953C261.651 5.82487 261.437 6.0778 261.154 6.27832C260.872 6.47884 260.523 6.61784 260.108 6.69531V6.76367C260.546 6.83203 260.933 6.95736 261.271 7.13965C261.608 7.32194 261.872 7.57715 262.063 7.90527C262.255 8.2334 262.351 8.65039 262.351 9.15625C262.351 9.77148 262.207 10.291 261.92 10.7148C261.637 11.1387 261.236 11.46 260.717 11.6787C260.197 11.8929 259.582 12 258.871 12H255.433V2.00586ZM256.595 6.29199H258.509C259.379 6.29199 259.981 6.14844 260.313 5.86133C260.651 5.57422 260.819 5.15495 260.819 4.60352C260.819 4.03385 260.619 3.6237 260.218 3.37305C259.821 3.1224 259.188 2.99707 258.317 2.99707H256.595V6.29199ZM256.595 7.26953V11.0088H258.673C259.562 11.0088 260.19 10.8356 260.56 10.4893C260.929 10.1383 261.113 9.66667 261.113 9.07422C261.113 8.69596 261.029 8.3724 260.86 8.10352C260.696 7.83464 260.427 7.62956 260.054 7.48828C259.685 7.34245 259.19 7.26953 258.57 7.26953H256.595ZM268.756 2.8877C268.204 2.8877 267.708 2.9834 267.266 3.1748C266.828 3.36165 266.454 3.63509 266.145 3.99512C265.839 4.35059 265.604 4.78125 265.44 5.28711C265.276 5.79297 265.194 6.36263 265.194 6.99609C265.194 7.83464 265.324 8.5638 265.584 9.18359C265.848 9.79883 266.24 10.2751 266.76 10.6123C267.284 10.9495 267.938 11.1182 268.722 11.1182C269.168 11.1182 269.588 11.0817 269.979 11.0088C270.376 10.9313 270.761 10.8356 271.135 10.7217V11.7334C270.77 11.8701 270.387 11.9704 269.986 12.0342C269.585 12.1025 269.109 12.1367 268.558 12.1367C267.541 12.1367 266.691 11.9271 266.008 11.5078C265.329 11.084 264.818 10.487 264.477 9.7168C264.139 8.94661 263.971 8.03743 263.971 6.98926C263.971 6.23275 264.076 5.54232 264.285 4.91797C264.499 4.28906 264.809 3.74674 265.215 3.29102C265.625 2.83529 266.126 2.48438 266.719 2.23828C267.316 1.98763 267.999 1.8623 268.77 1.8623C269.275 1.8623 269.763 1.91243 270.232 2.0127C270.702 2.11296 271.126 2.25651 271.504 2.44336L271.039 3.42773C270.72 3.2819 270.369 3.15658 269.986 3.05176C269.608 2.94238 269.198 2.8877 268.756 2.8877Z" fill="#777777"></path><path d="M259.403 89H258.296V81.918C258.296 81.6491 258.296 81.4189 258.296 81.2275C258.3 81.0316 258.305 80.8538 258.31 80.6943C258.319 80.5303 258.33 80.3639 258.344 80.1953C258.202 80.3411 258.07 80.4665 257.947 80.5713C257.824 80.6715 257.672 80.7969 257.489 80.9473L256.348 81.8633L255.753 81.0908L258.46 79.0059H259.403V89ZM269.794 83.9893C269.794 84.8005 269.732 85.5251 269.609 86.1631C269.486 86.8011 269.293 87.3411 269.028 87.7832C268.764 88.2253 268.422 88.5625 268.003 88.7949C267.584 89.0228 267.08 89.1367 266.492 89.1367C265.749 89.1367 265.134 88.9339 264.646 88.5283C264.163 88.1227 263.801 87.5371 263.56 86.7715C263.323 86.0013 263.204 85.0739 263.204 83.9893C263.204 82.9229 263.311 82.0068 263.525 81.2412C263.744 80.471 264.095 79.8809 264.578 79.4707C265.061 79.056 265.699 78.8486 266.492 78.8486C267.244 78.8486 267.864 79.0537 268.352 79.4639C268.839 79.8695 269.201 80.4574 269.438 81.2275C269.675 81.9932 269.794 82.9137 269.794 83.9893ZM264.346 83.9893C264.346 84.9189 264.416 85.6937 264.558 86.3135C264.699 86.9333 264.927 87.3981 265.241 87.708C265.56 88.0133 265.977 88.166 266.492 88.166C267.007 88.166 267.422 88.0133 267.736 87.708C268.055 87.4027 268.285 86.9401 268.427 86.3203C268.573 85.7005 268.646 84.9235 268.646 83.9893C268.646 83.0732 268.575 82.3076 268.434 81.6924C268.292 81.0726 268.064 80.6077 267.75 80.2979C267.436 79.9834 267.016 79.8262 266.492 79.8262C265.968 79.8262 265.549 79.9834 265.234 80.2979C264.92 80.6077 264.692 81.0726 264.551 81.6924C264.414 82.3076 264.346 83.0732 264.346 83.9893Z" fill="#777777"></path><path d="M259.403 120H258.296V112.918C258.296 112.649 258.296 112.419 258.296 112.228C258.3 112.032 258.305 111.854 258.31 111.694C258.319 111.53 258.33 111.364 258.344 111.195C258.202 111.341 258.07 111.466 257.947 111.571C257.824 111.672 257.672 111.797 257.489 111.947L256.348 112.863L255.753 112.091L258.46 110.006H259.403V120ZM264.482 120L268.584 111.045H263.136V110.006H269.801V110.881L265.727 120H264.482Z" fill="#777777"></path><path d="M261.728 151H255.179V150.05L257.852 147.336C258.348 146.835 258.765 146.388 259.103 145.996C259.444 145.604 259.704 145.219 259.882 144.841C260.06 144.458 260.148 144.039 260.148 143.583C260.148 143.018 259.98 142.587 259.643 142.291C259.31 141.99 258.87 141.84 258.323 141.84C257.845 141.84 257.421 141.922 257.052 142.086C256.683 142.25 256.304 142.482 255.917 142.783L255.309 142.018C255.573 141.794 255.86 141.596 256.17 141.423C256.484 141.25 256.819 141.113 257.175 141.013C257.535 140.912 257.918 140.862 258.323 140.862C258.938 140.862 259.469 140.969 259.916 141.184C260.363 141.398 260.707 141.703 260.948 142.1C261.194 142.496 261.317 142.968 261.317 143.515C261.317 144.043 261.213 144.535 261.003 144.991C260.793 145.442 260.499 145.891 260.121 146.338C259.743 146.78 259.301 147.249 258.795 147.746L256.621 149.913V149.961H261.728V151ZM270.238 148.683H268.741V151H267.634V148.683H262.801V147.726L267.559 140.951H268.741V147.657H270.238V148.683ZM267.634 147.657V144.39C267.634 144.139 267.636 143.913 267.641 143.713C267.645 143.508 267.652 143.319 267.661 143.146C267.67 142.968 267.677 142.799 267.682 142.64C267.691 142.48 267.698 142.323 267.702 142.168H267.647C267.561 142.35 267.461 142.544 267.347 142.749C267.237 142.95 267.126 143.13 267.012 143.289L263.929 147.657H267.634Z" fill="#777777"></path><path d="M261.358 174.337C261.358 174.784 261.272 175.171 261.099 175.499C260.925 175.827 260.684 176.096 260.374 176.306C260.064 176.511 259.7 176.654 259.28 176.736V176.791C260.073 176.891 260.668 177.146 261.064 177.557C261.465 177.967 261.666 178.505 261.666 179.17C261.666 179.749 261.529 180.261 261.256 180.708C260.987 181.155 260.572 181.506 260.012 181.761C259.456 182.011 258.743 182.137 257.872 182.137C257.343 182.137 256.854 182.093 256.402 182.007C255.956 181.925 255.527 181.786 255.117 181.59V180.523C255.532 180.729 255.983 180.89 256.471 181.009C256.958 181.123 257.43 181.18 257.886 181.18C258.797 181.18 259.456 181 259.861 180.64C260.267 180.275 260.47 179.778 260.47 179.149C260.47 178.716 260.356 178.368 260.128 178.104C259.905 177.835 259.581 177.639 259.157 177.516C258.738 177.388 258.232 177.324 257.64 177.324H256.642V176.354H257.646C258.189 176.354 258.649 176.274 259.027 176.114C259.406 175.955 259.693 175.731 259.889 175.444C260.089 175.153 260.189 174.809 260.189 174.412C260.189 173.906 260.021 173.517 259.684 173.243C259.346 172.965 258.888 172.826 258.31 172.826C257.954 172.826 257.631 172.863 257.339 172.936C257.047 173.008 256.774 173.109 256.519 173.236C256.263 173.364 256.008 173.512 255.753 173.681L255.179 172.901C255.543 172.619 255.988 172.375 256.512 172.17C257.036 171.965 257.631 171.862 258.296 171.862C259.317 171.862 260.082 172.095 260.593 172.56C261.103 173.024 261.358 173.617 261.358 174.337ZM267.415 182H266.308V174.918C266.308 174.649 266.308 174.419 266.308 174.228C266.312 174.032 266.317 173.854 266.321 173.694C266.33 173.53 266.342 173.364 266.355 173.195C266.214 173.341 266.082 173.466 265.959 173.571C265.836 173.672 265.683 173.797 265.501 173.947L264.359 174.863L263.765 174.091L266.472 172.006H267.415V182Z" fill="#777777"></path></svg> 