<?xml version="1.0" encoding="UTF-8"?> <svg xmlns="http://www.w3.org/2000/svg" width="168" height="168" viewBox="0 0 168 168" fill="none"><path d="M76.2909 22.0114L77.1301 31.2032L76.2369 31.2848L75.8444 26.9866L70.3941 27.4843L70.7865 31.7824L69.8803 31.8651L69.041 22.6734L69.9473 22.5906L70.3208 26.6816L75.7711 26.184L75.3976 22.093L76.2909 22.0114Z" fill="#100E0F"></path><path d="M86.1694 21.3804L86.9319 21.4636L89.7426 31.0553L88.7863 30.9509L87.9105 27.9521L83.788 27.5021L82.2988 30.2427L81.3296 30.1369L86.1694 21.3804ZM87.7814 27.2188L86.4285 22.481L84.0595 26.8125L87.7814 27.2188Z" fill="#100E0F"></path><path d="M92.7227 29.9862L97.8444 26.9398L96.4201 21.5263L97.4068 21.9297L98.6921 26.8932L99.8594 27.3704L101.414 23.5679L102.244 23.9073L100.69 27.7098L101.845 28.1821L106.251 25.5455L107.238 25.9489L102.417 28.8093L103.938 34.5712L102.963 34.1727L101.554 28.962L100.375 28.4799L98.7514 32.4509L97.9211 32.1115L99.5445 28.1405L98.3532 27.6535L93.6974 30.3847L92.7227 29.9862Z" fill="#100E0F"></path><path d="M113.612 39.5349L118.138 33.5371L111.955 36.1838L111.499 35.8392L112.338 29.1597L107.811 35.1575L107.085 34.6094L112.645 27.2418L113.392 27.8056L112.461 35.0179L119.162 32.1595L119.898 32.7155L114.338 40.0831L113.612 39.5349Z" fill="#100E0F"></path><path d="M118.472 42.1586L125.516 36.1932L126.095 36.8777L120.004 42.0365L129.792 41.2425L130.338 41.8873L123.295 47.8527L122.715 47.1682L128.697 42.1018L119.061 42.853L118.472 42.1586Z" fill="#100E0F"></path><path d="M136.907 52.1056L135.269 49.2537L127.964 53.45L127.511 52.6609L134.815 48.4646L133.177 45.6127L133.876 45.2112L137.606 51.7041L136.907 52.1056Z" fill="#100E0F"></path><path d="M134.427 64.2752L133.667 64.5447L131.594 58.7006L140.292 55.6144L142.327 61.3482L141.567 61.6177L139.837 56.7415L136.7 57.8543L138.209 62.1056L137.486 62.3621L135.978 58.1107L132.657 59.2887L134.427 64.2752Z" fill="#100E0F"></path><path d="M134.02 68.7876L135.132 68.7206L135.056 68.4316L136.249 68.1142L136.47 68.9434L135.276 69.2608L134.137 69.2273L134.02 68.7876Z" fill="#100E0F"></path><path d="M137.308 82.6276L141.285 82.7174C141.203 82.5249 141.126 82.3021 141.054 82.049C140.981 81.796 140.922 81.5216 140.877 81.2258C140.84 80.9303 140.826 80.6135 140.834 80.2756C140.857 79.2532 141.095 78.5044 141.547 78.0292C142.009 77.5541 142.725 77.3276 143.695 77.3495L146.659 77.4165L146.639 78.3003L143.779 78.2356C143.06 78.2194 142.532 78.3808 142.195 78.72C141.858 79.0678 141.68 79.6359 141.662 80.4244C141.652 80.8663 141.69 81.2962 141.776 81.7143C141.862 82.141 141.971 82.4815 142.104 82.7359L146.536 82.8361L146.516 83.7199L137.289 83.5113L137.308 82.6276Z" fill="#100E0F"></path><path d="M144.687 94.8934L145.345 91.6709L137.092 89.9856L137.274 89.094L145.527 90.7793L146.185 87.5568L146.975 87.718L145.477 95.0546L144.687 94.8934Z" fill="#100E0F"></path><path d="M134.998 99.9883C135.263 99.395 135.623 98.9102 136.076 98.5339C136.529 98.1575 137.036 97.8856 137.595 97.7181C138.162 97.5542 138.741 97.4906 139.332 97.5273C139.932 97.5676 140.5 97.7081 141.038 97.9488C141.6 98.2002 142.089 98.5381 142.507 98.9624C142.933 99.3903 143.264 99.8708 143.5 100.404C143.74 100.948 143.867 101.513 143.881 102.098C143.902 102.687 143.787 103.262 143.536 103.824C143.27 104.417 142.907 104.9 142.446 105.273C141.985 105.646 141.472 105.91 140.909 106.066C140.341 106.23 139.762 106.294 139.171 106.257C138.58 106.22 138.019 106.083 137.489 105.846C136.928 105.595 136.434 105.255 136.008 104.827C135.59 104.403 135.259 103.922 135.015 103.386C134.779 102.853 134.654 102.294 134.641 101.709C134.627 101.123 134.746 100.55 134.998 99.9883ZM140.666 98.7794C140.207 98.5741 139.731 98.451 139.236 98.4101C138.75 98.3727 138.278 98.4182 137.822 98.5463C137.374 98.678 136.966 98.8895 136.598 99.1807C136.235 99.4833 135.951 99.864 135.745 100.323C135.529 100.805 135.435 101.281 135.463 101.749C135.495 102.229 135.617 102.677 135.829 103.095C136.045 103.524 136.331 103.904 136.687 104.234C137.042 104.564 137.438 104.826 137.873 105.021C138.332 105.226 138.804 105.348 139.291 105.385C139.777 105.422 140.25 105.373 140.71 105.237C141.166 105.109 141.574 104.897 141.934 104.602C142.294 104.308 142.576 103.931 142.782 103.472C142.994 102.997 143.088 102.522 143.064 102.046C143.036 101.578 142.914 101.129 142.698 100.7C142.486 100.282 142.204 99.9045 141.852 99.5666C141.497 99.2365 141.101 98.9742 140.666 98.7794Z" fill="#100E0F"></path><path d="M131.736 108.509L139.243 113.879L135.643 118.912L134.988 118.443L138.058 114.15L135.447 112.282L133.677 114.756C133.087 115.581 132.457 116.052 131.787 116.169C131.124 116.292 130.486 116.134 129.872 115.695C129.471 115.408 129.167 115.057 128.962 114.644C128.759 114.243 128.684 113.796 128.739 113.302C128.796 112.821 129.013 112.315 129.391 111.787L131.736 108.509ZM131.862 109.718L130.107 112.171C129.815 112.58 129.655 112.961 129.626 113.313C129.598 113.666 129.659 113.982 129.811 114.261C129.97 114.545 130.177 114.778 130.431 114.959C130.684 115.141 130.956 115.261 131.245 115.318C131.541 115.381 131.847 115.333 132.162 115.175C132.48 115.029 132.8 114.731 133.123 114.28L134.854 111.858L131.862 109.718Z" fill="#100E0F"></path><path d="M126.642 117.253L132.66 124.251L131.97 124.845L129.631 122.124L127.856 123.65C127.35 124.085 126.854 124.358 126.366 124.469C125.878 124.579 125.414 124.544 124.973 124.364C124.525 124.189 124.117 123.887 123.75 123.46C123.417 123.073 123.191 122.644 123.073 122.174C122.954 121.704 122.978 121.233 123.142 120.76C123.307 120.287 123.636 119.838 124.129 119.414L126.642 117.253ZM126.452 118.428L124.717 119.92C124.33 120.253 124.08 120.594 123.967 120.942C123.861 121.296 123.857 121.637 123.955 121.964C124.052 122.303 124.214 122.604 124.44 122.867C124.677 123.143 124.947 123.357 125.249 123.509C125.551 123.661 125.882 123.707 126.243 123.648C126.604 123.589 126.992 123.382 127.406 123.026L129.131 121.543L126.452 118.428ZM120.689 122.372L126.698 129.361L126.018 129.946L120.008 122.957L120.689 122.372Z" fill="#100E0F"></path><path d="M108.026 133.813C107.835 133.396 107.77 132.973 107.831 132.544C107.896 132.124 108.066 131.736 108.342 131.381C108.613 131.037 108.962 130.768 109.387 130.573L113.347 128.759L117.19 137.151L113.148 139.002C112.754 139.183 112.367 139.232 111.986 139.149C111.6 139.078 111.257 138.911 110.956 138.648C110.65 138.397 110.416 138.095 110.254 137.74C110.062 137.323 109.992 136.888 110.042 136.436C110.093 135.984 110.267 135.584 110.566 135.238C110.02 135.316 109.521 135.225 109.069 134.966C108.608 134.71 108.261 134.325 108.026 133.813ZM108.918 133.576C109.048 133.86 109.23 134.091 109.465 134.269C109.703 134.456 109.966 134.574 110.255 134.622C110.537 134.674 110.815 134.637 111.091 134.511L114.306 133.039L112.85 129.859L109.718 131.294C109.434 131.424 109.212 131.616 109.052 131.87C108.892 132.125 108.799 132.401 108.774 132.699C108.744 133.008 108.792 133.3 108.918 133.576ZM116.033 136.809L114.614 133.712L111.731 135.033C111.455 135.16 111.243 135.342 111.095 135.582C110.951 135.829 110.87 136.099 110.852 136.394C110.835 136.688 110.887 136.969 111.01 137.237C111.14 137.52 111.316 137.749 111.539 137.924C111.765 138.106 112.014 138.221 112.283 138.269C112.553 138.317 112.818 138.281 113.078 138.162L116.033 136.809Z" fill="#100E0F"></path><path d="M104.48 133.335L106.748 142.282L105.866 142.505L104.856 138.523L103.508 138.865L101.443 143.627L100.422 143.886L102.688 138.698L97.9396 134.993L99.0233 134.718L103.278 138.065L104.652 137.717L103.598 133.558L104.48 133.335Z" fill="#100E0F"></path><path d="M88.9852 136.69L89.2082 145.111L92.9769 145.011L92.9772 143.061C92.9868 141.786 93.0498 140.727 93.1662 139.883C93.2825 139.039 93.4599 138.371 93.6983 137.879C93.9369 137.396 94.2354 137.045 94.5938 136.828C94.9524 136.619 95.3829 136.508 95.8854 136.494L95.9067 137.3C95.5689 137.309 95.2723 137.404 95.0169 137.584C94.7616 137.764 94.5487 138.073 94.3783 138.511C94.2078 138.949 94.0807 139.551 93.9969 140.316C93.9047 141.09 93.8569 142.066 93.8534 143.246L93.8429 145.795L88.3328 145.941L88.0885 136.714L88.9852 136.69Z" fill="#100E0F"></path><path d="M75.609 136.248C76.3634 136.446 76.9848 136.793 77.473 137.289C77.959 137.792 78.2967 138.401 78.486 139.113C78.667 139.824 78.6695 140.6 78.4937 141.441L80.2289 141.896L81.3012 137.809L82.1814 138.04L79.8389 146.968L78.9587 146.737L80.0211 142.688L78.2858 142.233C78.005 143.064 77.6082 143.74 77.0956 144.259C76.5746 144.776 75.9808 145.127 75.3144 145.31C74.6397 145.492 73.946 145.489 73.2334 145.302C72.4203 145.089 71.7594 144.705 71.2509 144.15C70.7401 143.604 70.4019 142.946 70.2364 142.177C70.0709 141.408 70.1047 140.579 70.3378 139.69C70.5864 138.743 70.9789 137.981 71.5153 137.405C72.0517 136.829 72.6774 136.443 73.3923 136.245C74.0988 136.045 74.8377 136.046 75.609 136.248ZM75.4011 137.041C74.7472 136.869 74.1438 136.881 73.5908 137.076C73.0272 137.278 72.5417 137.625 72.1345 138.119C71.7189 138.61 71.4165 139.216 71.2273 139.937C71.0272 140.7 70.9928 141.394 71.1243 142.02C71.2535 142.655 71.5175 143.185 71.9161 143.612C72.3148 144.04 72.8243 144.335 73.4446 144.497C74.0817 144.664 74.6768 144.65 75.2298 144.455C75.7722 144.266 76.2471 143.924 76.6543 143.431C77.0532 142.935 77.3483 142.323 77.5396 141.593C77.7376 140.839 77.7803 140.147 77.6678 139.517C77.5469 138.885 77.2925 138.352 76.9044 137.919C76.5142 137.494 76.0131 137.201 75.4011 137.041Z" fill="#100E0F"></path><path d="M63.2367 132.499L61.4937 136.075C61.7031 136.081 61.9378 136.104 62.1979 136.144C62.458 136.184 62.7319 136.245 63.0196 136.327C63.3034 136.417 63.5973 136.537 63.9011 136.685C64.8204 137.133 65.4013 137.662 65.6439 138.272C65.8827 138.89 65.7895 139.635 65.3642 140.507L64.0655 143.172L63.2709 142.784L64.524 140.213C64.8392 139.567 64.9131 139.019 64.7458 138.572C64.5707 138.12 64.1286 137.721 63.4197 137.376C63.0224 137.182 62.6159 137.037 62.2002 136.94C61.7767 136.84 61.4216 136.797 61.1349 136.812L59.1926 140.796L58.3979 140.409L62.4421 132.112L63.2367 132.499Z" fill="#100E0F"></path><path d="M58.9181 131.361L53.1714 138.584L52.4695 138.025L57.4391 131.779L47.9934 134.464L47.3321 133.938L53.0788 126.715L53.7808 127.273L48.9001 133.408L58.206 130.794L58.9181 131.361Z" fill="#100E0F"></path><path d="M38.8453 125.186L41.0083 127.664L47.3544 122.124L47.9529 122.81L41.6067 128.35L43.7697 130.827L43.1625 131.357L38.2381 125.716L38.8453 125.186Z" fill="#100E0F"></path><path d="M42.772 117.738L34.8397 122.457L34.3744 121.675L37.4579 119.841L36.2615 117.83C35.9203 117.256 35.7373 116.72 35.7124 116.22C35.6875 115.721 35.8021 115.269 36.0563 114.866C36.3061 114.455 36.673 114.106 37.1571 113.818C37.5966 113.556 38.0579 113.408 38.5411 113.372C39.0243 113.337 39.4847 113.441 39.9222 113.685C40.3598 113.929 40.7447 114.33 41.0771 114.889L42.772 117.738ZM41.6476 117.348L40.4777 115.382C40.2163 114.942 39.9239 114.637 39.6005 114.467C39.2696 114.3 38.9347 114.237 38.5957 114.278C38.2448 114.315 37.9203 114.422 37.6224 114.6C37.3096 114.786 37.0523 115.014 36.8507 115.286C36.649 115.557 36.546 115.875 36.5417 116.241C36.5373 116.607 36.6748 117.024 36.9539 117.493L38.1171 119.448L41.6476 117.348Z" fill="#100E0F"></path><path d="M32.9054 97.3593L25.533 98.811L31.9056 100.961L32.0161 101.523L26.9371 105.941L34.3095 104.489L34.4853 105.382L25.4292 107.165L25.2484 106.247L30.7516 101.493L23.8519 99.1553L23.6735 98.2497L32.7296 96.4664L32.9054 97.3593Z" fill="#100E0F"></path><path d="M31.3719 91.0659L30.605 91.0775L30.5961 90.4925C30.5931 90.2932 30.5346 90.1468 30.4205 90.0531C30.3062 89.9509 30.1355 89.8408 29.9084 89.7228L29.0574 89.3327L22.1498 93.3766L22.1346 92.3757L28.1282 88.9307L22.0416 86.2274L22.0273 85.2785L30.3397 89.0142C30.6976 89.1822 30.956 89.356 31.1147 89.5356C31.2734 89.7152 31.3553 89.9697 31.3603 90.2989L31.3719 91.0659Z" fill="#100E0F"></path><path d="M31.3028 80.311C31.2108 80.937 30.9954 81.4791 30.6565 81.9373C30.309 82.3943 29.8744 82.729 29.3526 82.9414L29.0302 82.1845C29.439 82.0256 29.7734 81.7769 30.0334 81.4384C30.2934 81.1 30.4586 80.6907 30.5292 80.2105C30.625 79.5588 30.5334 79.0198 30.2544 78.5933C29.9681 78.1571 29.542 77.8974 28.9761 77.8142C28.616 77.7613 28.2868 77.7961 27.9884 77.9187C27.6828 78.0314 27.4314 78.2222 27.2342 78.4911C27.037 78.7599 26.9082 79.1002 26.8477 79.5117L26.7191 80.3863L25.9989 80.2805L26.1293 79.393C26.1759 79.0758 26.144 78.7864 26.0335 78.5249C25.9145 78.2621 25.7407 78.0438 25.5122 77.8701C25.2837 77.6964 25.0151 77.5868 24.7064 77.5415C24.372 77.4923 24.0691 77.5266 23.7978 77.6444C23.5277 77.7537 23.2996 77.9347 23.1135 78.1877C22.9287 78.4321 22.8098 78.7344 22.7569 79.0945C22.6926 79.5318 22.7345 79.9321 22.8826 80.2955C23.0306 80.6589 23.266 80.9651 23.5885 81.2139L23.0548 81.8056C22.6223 81.4705 22.3052 81.0648 22.1037 80.5884C21.9034 80.1034 21.8486 79.5523 21.9394 78.9349C22.0162 78.4119 22.1859 77.9725 22.4484 77.6169C22.7036 77.2515 23.0276 76.9838 23.4205 76.8137C23.8061 76.6339 24.239 76.5793 24.7192 76.6498C25.1822 76.7179 25.5853 76.8954 25.9286 77.1823C26.2645 77.4595 26.4953 77.8263 26.621 78.2827C26.8461 77.7639 27.1902 77.3897 27.6532 77.1599C28.1175 76.9215 28.6283 76.8433 29.1856 76.9252C29.7172 77.0033 30.1571 77.1994 30.5051 77.5133C30.8446 77.826 31.0838 78.2247 31.2228 78.7094C31.3631 79.1855 31.3897 79.7194 31.3028 80.311Z" fill="#100E0F"></path><path d="M31.2461 73.3885L22.7025 69.8956L23.0468 69.0533L26.368 70.4111L27.2535 68.2451C27.506 67.6274 27.8242 67.1582 28.2081 66.8377C28.592 66.5171 29.0214 66.3369 29.4965 66.297C29.9749 66.2492 30.4748 66.3318 30.9962 66.545C31.4695 66.7385 31.8657 67.0175 32.1848 67.382C32.5039 67.7466 32.6978 68.177 32.7665 68.6732C32.8352 69.1694 32.7465 69.7183 32.5005 70.32L31.2461 73.3885ZM30.8805 72.2559L31.7463 70.138C31.9398 69.6647 32.0073 69.2476 31.9489 68.8867C31.8825 68.5224 31.7311 68.2171 31.4948 67.9707C31.2537 67.7129 30.9727 67.5185 30.6518 67.3873C30.3149 67.2496 29.9774 67.1818 29.6394 67.1841C29.3015 67.1863 28.9852 67.2958 28.6906 67.5124C28.3961 67.7291 28.1455 68.0901 27.9389 68.5955L27.078 70.7013L30.8805 72.2559ZM34.2174 66.1204L25.6859 62.6325L26.0253 61.8022L34.5569 65.2901L34.2174 66.1204Z" fill="#100E0F"></path><path d="M35.5048 61.6764L27.7153 56.725L28.2035 55.957L31.6704 58.1607L32.4166 56.9868L30.6513 52.1061L31.2162 51.2175L33.1283 56.5458L39.1243 55.9824L38.5245 56.9259L33.1327 57.4112L32.3725 58.607L35.993 60.9084L35.5048 61.6764Z" fill="#100E0F"></path><path d="M41.028 52.4989L40.4644 51.9786L40.8613 51.5488C40.9965 51.4023 41.0551 51.2559 41.037 51.1094C41.0248 50.9565 40.977 50.7591 40.8938 50.5171L40.5464 49.6478L32.7548 47.8147L33.4339 47.0793L40.1504 48.716L37.6053 42.5616L38.2491 41.8644L41.6948 50.3012C41.8382 50.6696 41.9055 50.9736 41.8967 51.2131C41.8878 51.4527 41.7717 51.6934 41.5483 51.9354L41.028 52.4989Z" fill="#100E0F"></path></svg> 