<?xml version="1.0" encoding="UTF-8"?> <svg xmlns="http://www.w3.org/2000/svg" width="16" height="16" viewBox="0 0 16 16" fill="none"><path d="M0.128906 7.30314C0.128906 7.16877 0.182031 7.03125 0.285156 6.92812C0.491406 6.72187 0.828906 6.72187 1.03516 6.92812L8.09453 13.9875L15.0508 7.03125C15.257 6.825 15.5945 6.825 15.8008 7.03125C16.007 7.2375 16.007 7.575 15.8008 7.78125L8.46953 15.1156C8.26328 15.3219 7.92578 15.3219 7.71953 15.1156L0.285156 7.68125C0.178906 7.575 0.128906 7.44062 0.128906 7.30314Z" fill="#CBCBCB"></path><path d="M0.128906 1.5297C0.128906 1.39533 0.182031 1.25781 0.285156 1.15469C0.491406 0.948437 0.828906 0.948437 1.03516 1.15469L8.09453 8.21406L15.0508 1.25781C15.257 1.05156 15.5945 1.05156 15.8008 1.25781C16.007 1.46406 16.007 1.80156 15.8008 2.00781L8.46953 9.34219C8.26328 9.54844 7.92578 9.54844 7.71953 9.34219L0.285156 1.90781C0.178906 1.80156 0.128906 1.66719 0.128906 1.5297Z" fill="#DFDFDF"></path></svg> 